<svg width="644" height="640" viewBox="0 0 644 640" fill="none" xmlns="http://www.w3.org/2000/svg">
<path d="M532.166 379.854C525.649 379.477 520.982 386.202 521.898 392.17C522.391 395.443 524.354 398.285 527.228 399.955C528.294 400.585 529.5 401.031 530.72 401.317C533.189 401.906 530.524 401.805 528.791 399.892L526.255 395.633C525.705 392.831 526.281 390.486 527.975 388.576C529.397 387.558 529.633 387.335 528.674 387.921C531.987 386.351 528.084 388.245 528.089 387.968C529.534 387.783 529.747 387.734 528.715 387.813C528.314 387.832 527.891 387.821 527.499 387.789C528.978 387.978 529.212 387.959 528.2 387.769C527.177 387.462 527.413 387.574 528.899 388.12C525.06 386.51 520.31 386.406 517.268 389.803C514.425 392.976 513.524 397.786 515.856 401.54C519.719 407.804 526.486 410.183 533.516 408.833C538.524 407.868 541.73 401.525 540.175 396.842C538.394 391.492 533.521 389.159 528.183 390.182C528.536 390.117 530.279 389.93 528.98 389.954L530.39 390.066C529.627 389.829 529.684 389.86 530.561 390.161C531.327 390.493 531.479 390.522 531.023 390.268C530.583 389.987 530.696 390.087 531.405 390.555C531.707 390.816 533.275 392.824 532.554 391.64L519.51 405.06C525.921 407.745 533.514 408.198 539.514 404.039C543.8 401.053 546.569 396.032 545.108 390.712C544.352 387.944 542.377 385.562 539.954 384.086C538.938 383.466 537.639 382.986 536.477 382.695C534.097 382.082 536.404 382.189 538.375 384.178L540.911 388.437L541.007 392.291L538.5 396.805L537.03 397.908L532.289 399.263L532.631 399.285C537.701 399.586 542.436 394.315 542.125 389.372C541.761 383.785 537.635 380.208 532.209 379.878L532.166 379.854Z" fill="white"/>
<path d="M111.303 239.222L115.035 242.468C115.388 242.906 115.741 243.344 116.086 243.797C115.141 241.875 114.164 239.841 114.198 237.699C114.233 235.557 115.615 233.269 117.743 232.96C119.908 232.653 121.758 234.388 123.243 235.977" fill="#F2ECAB"/>
<path d="M104.513 246.147C106.193 247.62 107.899 248.977 109.296 250.722C110.694 252.467 114.144 253.638 116.308 253.498C118.473 253.359 120.332 252.695 122.037 251.369C126.023 248.253 126.604 243.247 124.438 238.858C124.297 238.575 124.15 238.27 124.009 237.987C123.702 237.332 123.815 237.599 124.332 238.781C124.06 238.667 123.928 237.494 123.822 237.249C123.412 236.276 123.834 239.175 123.892 237.493C123.66 238.985 123.642 239.385 123.827 238.65C124.035 237.907 123.88 238.287 123.391 239.805C121.738 242.781 118.111 243.003 115.268 241.815C115.98 242.21 115.967 242.166 115.231 241.646C114.519 241.082 114.491 241.067 115.16 241.606C115.586 242.047 116.035 242.446 116.453 242.902C119.948 246.575 126.766 246.579 130.169 242.767C133.785 238.739 133.793 232.986 130.033 229.053C127.599 226.49 124.641 224.4 121.177 223.557C116.616 222.44 111.838 224.165 108.598 227.416C105.769 230.261 104.372 234.59 104.529 238.535C104.669 242.208 106.168 245.482 107.742 248.722L122.884 236.859C121.486 235.113 119.78 233.756 118.101 232.283C114.285 228.953 108.018 228.36 104.385 232.418C101.052 236.138 100.424 242.571 104.521 246.132L104.513 246.147Z" fill="white"/>
<path d="M318.638 582.711C324.45 539.226 320.085 513.026 301.716 472.211C254.673 465.613 214.908 439.133 189.593 399.584C163.005 412.898 133.167 408.44 120.711 380.467C117.548 373.344 116.046 365.076 114.416 357.575C100.904 363.114 80.8095 368.091 71.7206 353.82C70.573 352.027 70.2381 347.295 71.0336 345.426C71.8291 343.557 75.5358 340.473 77.8222 340.047L116.025 332.698C130.468 329.912 114.725 352.79 129.189 379.53C140.229 399.952 165.565 404.296 184.588 391.55C147.723 330.719 154.457 254.97 200.531 199.187C175.481 180.636 138.282 189.399 123.922 216.902C137.48 223.294 144.348 235.624 138.107 246.561C136.892 248.681 130.876 248.675 129.104 250.524C126.362 253.38 123.007 258.951 119.283 260.088C114.709 261.479 110.28 257.809 107.164 253.823L99.2658 251.468C97.0915 250.82 95.367 244.663 95.9775 243.531C92.9407 227.59 108.463 223.465 114.162 214.276C134.159 182.06 173.128 169.975 206.291 192.64C254.862 139.641 332.187 123.386 398.236 152.706C405.641 141.688 409.682 129.343 409.466 116.142C408.101 112.794 405.8 108.181 403.326 107.366C400.565 106.466 395.701 109.653 393.412 111.494L389.014 115.051C388.069 115.812 384.811 111.916 385.106 110.645C386.644 104.083 395.742 97.937 402.579 99.1815C427.347 103.676 415.625 140.655 406.416 156.801C428.684 169.019 447.851 184.638 463.625 205.193C476.41 194.722 507.556 176.355 518.719 195.448C523.974 204.441 517.379 217.827 511.038 218.573C509.902 218.706 507.919 217.512 507.52 216.452C505.701 211.64 515.572 206.651 512.028 199.744C505.721 187.41 475.906 204.354 468.885 212.399C514.484 281.193 503.991 370.356 444.863 427.834C469.614 449.07 505.956 442.421 522.501 414.809C509.789 408.103 503.484 397.913 509.54 386.873C510.98 384.281 517.505 384.141 519.573 382.028C522.289 379.251 525.217 373.61 528.453 372.817C533.687 371.513 537.452 375.672 541.106 378.689C543.099 380.336 548.316 382.115 550.068 383.927C557.222 391.347 547.214 412.154 531.679 416.067C522.315 432.258 507.978 443.879 489.801 447.685C471.624 451.491 454.048 445.289 438.733 433.84C402.801 463.71 358.809 478.632 311.972 473.844C324.884 503.412 330.452 532.814 328.693 563.699C337.115 558.836 344.218 556.147 352.616 554.681C359.667 555.541 366.048 557.24 370.339 563.405C371.767 565.465 372.516 570.726 371.664 572.899C370.811 575.071 366.725 578.671 364.304 579.171L325.599 587.191C323.722 587.584 318.371 584.836 318.645 582.733L318.638 582.711ZM456.888 401.047C501.669 340.913 498.51 258.515 449.866 202.452C428.368 177.675 400.967 159.701 369.599 151.858C313.881 137.927 256.118 154.928 218.217 192.742C174.364 236.473 158.788 297.473 177.209 354.603C184.976 378.704 198.168 400.452 215.266 418.053C283.616 488.394 398.085 480.022 456.896 401.033L456.888 401.047ZM531.231 407.545C539.452 404.956 544.919 396.589 543.991 388.192L533.716 396.46C529.934 395.049 535.283 377.598 531.038 380.812C530.292 381.385 528.012 383.678 527.765 384.659L524.657 397.839L515.567 391.692C513.01 400.389 522.766 410.204 531.217 407.537L531.231 407.545ZM115.571 253.014C123.277 254.405 119.074 233.215 124.142 236.104L131.814 240.476C134.705 233.324 125.53 222.397 116.583 224.211C108.034 225.947 102.404 237.261 104.171 244.615L114.939 236.937L115.579 253L115.571 253.014ZM113.072 341.27C101.387 343.519 88.9775 346 77.4888 349.44C85.6439 362.204 122.439 350.981 113.072 341.27ZM365.025 570.926C362.785 565.564 359.15 563.117 354.901 563.049C343.429 562.902 332.952 568.412 327.678 579.085L365.048 570.92L365.025 570.926Z" fill="black"/>
<path d="M456.888 401.047C398.085 480.021 283.609 488.409 215.258 418.067C198.16 400.466 184.968 378.718 177.201 354.617C158.78 297.487 174.356 236.487 218.209 192.756C256.125 154.951 313.873 137.942 369.591 151.872C400.945 159.707 428.36 177.689 449.858 202.466C498.517 258.537 501.661 340.927 456.88 401.061L456.888 401.047ZM345.677 238.39C362.898 235.432 376.266 221.931 380.635 205.575C383.262 195.743 380.947 185.382 376.262 179.557C369.315 170.892 360.304 166.447 350.245 166.842C327.775 167.741 310.058 186.691 310.003 209.038C309.956 228.148 326.023 241.767 345.677 238.39ZM421.298 330.974C439.198 330.386 454.759 318.607 461.302 302.564C465.135 293.177 463.664 282.504 459.853 275.542C454.817 266.355 445.488 260.503 435.424 259.666C415.005 257.978 397.549 271.929 391.95 291.272C389.189 300.807 390.592 310.865 395.153 317.349C401.262 326.014 410.299 331.35 421.29 330.988L421.298 330.974ZM364.838 268.651C358.999 260.005 367.766 256.433 363.82 251.055C362.973 249.895 358.728 251.264 357.831 252.946C354.123 259.924 354.222 270.954 362.146 275.914C367.783 279.454 378.408 282.168 383.621 273.585C387.767 266.758 369.539 275.622 364.823 268.643L364.838 268.651ZM356.63 342.053C374.053 324.171 373.221 298.219 357.141 281.705C341.061 265.192 317.134 263.345 298.843 278.193C278.912 294.384 276.551 322.327 293.264 341.427C309.162 359.61 338.414 360.762 356.608 342.06L356.63 342.053Z" fill="#F3AECA"/>
<path d="M365.026 570.927L327.655 579.092C332.945 568.427 343.422 562.916 354.879 563.056C359.136 563.109 362.771 565.557 365.003 570.933L365.026 570.927Z" fill="white"/>
<path d="M113.072 341.27C122.439 350.98 85.6439 362.204 77.4889 349.44C88.9775 346 101.387 343.519 113.072 341.27Z" fill="white"/>
<path d="M356.63 342.054C338.422 360.748 309.184 359.604 293.286 341.421C276.574 322.321 278.935 294.378 298.865 278.186C317.141 263.33 341.404 265.513 357.163 281.699C372.922 297.885 374.053 324.171 356.652 342.047L356.63 342.054ZM321.07 346.491C340.914 348.307 357.407 334.715 359.979 316.728C362.523 298.893 351.082 280.67 332.367 277.86C312.348 274.848 294.272 288.101 291.47 307.376C288.848 325.485 300.934 344.662 321.062 346.505L321.07 346.491Z" fill="black"/>
<path d="M421.298 330.973C410.308 331.335 401.27 325.999 395.161 317.334C390.585 310.843 389.183 300.785 391.958 291.258C397.571 271.922 415.013 257.963 435.432 259.651C445.496 260.489 454.825 266.34 459.861 275.528C463.679 282.511 465.143 293.163 461.31 302.549C454.767 318.592 439.206 330.372 421.306 330.959L421.298 330.973ZM403.662 298C402.011 288.456 407.518 282.365 412.632 275.237C399.768 280.819 393.75 304.775 403.128 315.237C408.687 321.436 416.186 324.408 424.053 323.261C437.901 321.244 449.947 311.667 454.593 298.502C459.239 285.338 452.467 272.298 439.422 268.407C432.546 266.358 423.974 266.592 418.64 271.232C425.951 270.112 432.108 268.724 437.607 272.412C442.286 275.531 444.381 285.918 439.801 288.797L430.125 290.113L433.907 298.94C435.033 301.577 423.907 311.478 414.604 309.237C409.465 307.986 404.565 303.421 403.64 298.006L403.662 298Z" fill="black"/>
<path d="M345.677 238.389C326.023 241.766 309.964 228.134 310.003 209.038C310.05 186.705 327.774 167.741 350.245 166.842C360.304 166.447 369.315 170.892 376.262 179.557C380.939 185.396 383.262 195.742 380.635 205.575C376.266 221.931 362.898 235.432 345.677 238.389ZM341.828 230.923C356.968 229.567 368.186 219.232 372.78 205.591C375.332 198.009 374.248 189.357 370.141 184.002C365.474 177.908 358.003 173.945 350.323 174.319C332.148 175.201 318.277 190.044 317.732 207.871C317.319 221.299 327.648 232.197 341.821 230.937L341.828 230.923Z" fill="black"/>
<path d="M364.838 268.651C369.553 275.63 387.781 266.766 383.635 273.594C378.414 282.19 367.783 279.454 362.16 275.922C354.23 270.94 354.131 259.91 357.845 252.954C358.742 251.272 362.987 249.903 363.834 251.063C367.772 256.455 359.013 260.013 364.852 268.659L364.838 268.651Z" fill="black"/>
<path d="M403.662 298C404.595 303.4 409.487 307.98 414.626 309.231C423.921 311.487 435.055 301.571 433.93 298.934L430.147 290.107L439.823 288.791C444.41 285.934 442.308 275.525 437.63 272.405C432.108 268.724 425.951 270.112 418.662 271.226C423.989 266.6 432.56 266.367 439.444 268.401C452.483 272.269 459.162 285.612 454.615 298.496C450.069 311.381 437.924 321.238 424.075 323.255C416.208 324.402 408.709 321.429 403.15 315.231C393.773 304.768 399.79 280.813 412.655 275.231C407.54 282.359 402.019 288.442 403.684 297.994L403.662 298Z" fill="white"/>
<path d="M341.828 230.923C327.656 232.182 317.333 221.307 317.74 207.856C318.285 190.029 332.156 175.186 350.331 174.305C358.011 173.931 365.468 177.885 370.148 183.988C374.256 189.343 375.34 197.994 372.788 205.577C368.194 219.218 356.976 229.553 341.836 230.909L341.828 230.923ZM343.048 194.8C334.806 193.67 328.99 206.39 330.43 213.227C331.979 220.571 338.647 227.423 347.459 226.354C358.448 225.022 368.056 216.011 370.394 205.123C371.546 199.726 369.423 193.18 365.705 190.445C361.535 187.384 354.645 186.837 351.076 189.439L351.521 199.04C349.334 198.179 344.773 195.05 343.063 194.808L343.048 194.8Z" fill="white"/>
<path d="M343.048 194.8C344.767 195.028 349.32 198.171 351.507 199.032L351.062 189.431C354.623 186.844 361.521 187.376 365.691 190.437C369.423 193.181 371.546 199.726 370.379 205.115C368.041 216.003 358.434 225.015 347.445 226.347C338.633 227.416 331.973 220.549 330.416 213.219C328.976 206.382 334.792 193.662 343.034 194.793L343.048 194.8Z" fill="black"/>
</svg>
