<svg width="487" height="537" viewBox="0 0 487 537" fill="none" xmlns="http://www.w3.org/2000/svg">
<path d="M146.453 69.9074L137.204 66.4329L129.623 62.3113L128.689 43.7801L138.899 32.5686L144.527 31.7218L146.225 42.8958L150.637 40.4214L159.518 36.5957L159.802 42.2112L153.156 56.6209L157.681 56.3927L159.69 62.4842L154.825 67.2333L146.453 69.9074Z" fill="white"/>
<path d="M409.44 395.204L417.44 398.704L423.94 402.704L423.94 419.204L414.44 428.704L409.44 429.204L408.44 419.204L404.44 421.204L396.44 424.204L396.44 419.204L402.94 406.704L398.94 406.704L397.44 401.204L401.94 397.204L409.44 395.204Z" fill="white"/>
<path d="M201.268 487.31C210.414 476.323 222.468 476.261 237.559 480.988C228.653 455.413 228.215 430.233 244.493 404.999C197.032 397.92 155.665 373.262 129.881 332.981C92.7302 335.196 73.4971 350.633 50.1709 375.016C49.1167 376.118 47.2756 377.483 46.1786 377.709C40.4939 378.903 26.3312 348.577 22.8014 341.637C21.1645 338.394 22.2444 331.77 24.914 329.517C27.2118 327.598 32.5011 327.253 36.6776 327.701C49.5218 332.067 55.092 343.802 56.2983 358.09C74.7148 339.136 97.5569 328.094 125.117 325.013C92.9911 270.056 96.0743 203.827 132.253 152.767C107.544 127.651 103.441 89.8388 123.703 61.4838C120.445 48.8732 125.275 38.1723 133.883 29.1632C136.593 27.802 140.436 26.5676 143.206 26.6376C145.976 26.7076 149.29 31.3534 151.654 32.6185C155.48 34.6817 161.603 35.9617 162.801 39.8419C164.49 45.3204 161.216 50.0451 159.141 54.4973C159.51 57.0068 160.81 62.3567 160.354 64.7909C158.716 73.7062 139.883 77.1468 128.743 67.9981C112.504 92.5281 116.095 124.633 137.015 146.239C176.924 96.8784 235.167 74.3591 297.527 86.8432C302.004 77.3938 305.944 45.9053 293.557 43.9058C290.587 43.4233 286.82 46.6599 284.929 49.3586L281.975 53.5845C281.208 54.6716 277.077 52.6362 276.894 51.0896C276.062 44.0812 283.567 36.2767 290.986 36.0529C299.073 35.7992 306.121 40.2346 308.399 49.0805C311.71 61.9369 309.386 75.2217 305.261 89.0725C328.747 96.045 350.56 106.4 368.989 122.409C377.758 111.879 386.966 102.971 398.768 97.5296C406.974 93.743 416.187 96.0151 420.323 103.862C423.383 109.65 423.383 123.024 413.627 123.803C408.084 124.247 416.814 111.121 413.049 106.147C405.391 96.0196 380.791 118.578 375.36 128.057C426.33 177.807 439.286 254.322 405.806 318.594C430.291 337.324 438.628 368.836 425.356 396.69C432.278 409.126 429.005 424.114 417.494 432.526C412.264 434.68 408.1 432.087 404.89 428.706C402.389 428.349 396.981 427.71 394.781 426.409C388.281 422.571 395.929 415.043 391.167 405.086C389.423 401.446 392.368 395.481 395.86 393.13C402.716 388.533 410.104 388.967 419.061 392.286C429.83 369.46 422.682 340.564 401.981 325.942C370.776 379.005 313.635 409.463 253.169 405.381C232.467 437.862 236.943 462.899 252.492 495.605C253.321 497.355 252.615 501.942 250.976 503.42C241.19 503.057 205.724 506.628 200.824 499.095C199.166 496.543 199.893 491.359 201.22 487.318L201.268 487.31ZM155.071 42.0188C154.563 34.4962 144.305 53.9029 140.11 46.1248L142.258 33.9792C133.147 38.9245 129.612 48.2163 130.801 56.39C132.173 65.8262 145.499 67.8883 151.286 63.7274C152.043 63.1754 152.453 60.3545 151.656 60.205L148.351 59.5557C133.94 56.7114 155.738 51.7946 155.084 42.0367L155.071 42.0188ZM245.544 396.001C310.498 403.852 370.634 369.207 398.837 314.345C429.099 255.503 418.785 184.246 372.358 137.47C344.345 109.242 305.898 92.7165 266.779 92.0587C191.082 90.7744 124.625 146.986 113.297 220.438C100.246 305.097 159.395 385.605 245.541 396.016L245.544 396.001ZM413.106 417.325L412.88 425.641C420.954 421.042 422.884 412.46 420.157 404.218C419.13 401.109 413.06 397.722 409.904 397.129C405.535 396.317 400.555 398.308 398.425 401.582L406.7 405.766L397.946 419.787C401.468 427.058 413.475 403.539 413.108 417.31L413.106 417.325ZM38.5423 336.746C36.0304 334.667 30.2212 334.719 29.55 337.306L45.5903 368.31C51.5767 356.935 47.9931 344.569 38.5423 336.746ZM243.938 496.096C236.748 487.61 228.166 485.16 219.448 485.497C213.688 485.731 208.032 488.635 207.628 495.657L243.923 496.094L243.938 496.096Z" fill="black"/>
<path d="M245.544 396.001C159.398 385.59 100.249 305.082 113.3 220.423C124.628 146.971 191.067 90.7722 266.782 92.0437C305.901 92.7015 344.348 109.227 372.361 137.455C418.788 184.231 429.102 255.488 398.84 314.33C370.637 369.192 310.501 403.837 245.547 395.986L245.544 396.001ZM253.895 175.166C271.46 170.329 283.034 154.664 283.419 137.106C283.665 126.221 278.965 116.558 271.744 110.704C263.427 103.94 252.69 101.143 242.304 104.169C224.805 109.271 214.156 125.643 214.001 143.618C213.914 153.836 218.149 163.263 224.898 168.817C233.095 175.545 243.04 178.161 253.892 175.181L253.895 175.166ZM347.28 231.732C371.125 227.901 384.511 201.819 376.82 180.111C372.895 169.031 363.179 162.411 353.108 160.358C342.47 158.194 332.238 161.341 323.877 168.686C310.752 180.221 304.774 198.893 312.572 215.25C318.451 227.59 332.467 234.11 347.296 231.735L347.28 231.732ZM289.676 198.539C286.659 199.565 281.889 200.201 279.774 198.962C272.419 194.665 277.33 187.909 273.329 185.47C272.353 184.879 268.767 186.567 268.412 187.74C266.664 193.731 270.469 202.896 275.63 205.483C282.425 208.881 291.999 207.961 295.648 202.51C296.405 201.389 295.846 196.432 294.656 196.833L289.661 198.537L289.676 198.539ZM298.316 256.882C303.305 232.612 287.694 211.013 264.87 207.247C243.049 203.633 222.264 218.147 217.702 241.193C213.196 263.902 227.787 285.646 249.236 289.971C272.094 294.565 293.273 281.475 298.331 256.885L298.316 256.882Z" fill="#FEDF17"/>
<path d="M38.5425 336.747C47.9933 344.57 51.5769 356.935 45.5905 368.31L29.5502 337.307C30.2368 334.722 36.046 334.67 38.5425 336.747Z" fill="white"/>
<path d="M243.939 496.097L207.644 495.66C208.048 488.638 213.703 485.734 219.464 485.5C228.169 485.145 236.751 487.596 243.954 496.099L243.939 496.097Z" fill="white"/>
<path d="M253.895 175.166C243.04 178.161 233.097 175.53 224.901 168.801C218.149 163.263 213.917 153.821 214.003 143.603C214.158 125.628 224.808 109.255 242.307 104.154C252.693 101.128 263.43 103.924 271.747 110.688C278.965 116.558 283.65 126.218 283.422 137.091C283.037 154.649 271.463 170.313 253.897 175.151L253.895 175.166ZM249.457 144.246C245.649 149.986 238.467 152.381 231.558 150.512C226.283 149.074 223.444 143.008 221.08 135.995C219.779 143.656 221.462 152.655 226.097 158.564C231.344 165.256 239.225 169.152 247.944 168.151C265.368 166.133 278.347 149.156 275.363 131.997C272.674 116.56 257.236 107.212 243.327 112.11C247.956 114.197 253.368 116.132 255.224 118.827C257.537 122.184 257.209 127.814 256.443 132.565L242.219 132.846L249.473 144.248L249.457 144.246Z" fill="black"/>
<path d="M347.281 231.732C332.452 234.108 318.434 227.603 312.556 215.247C304.774 198.893 310.752 180.221 323.862 168.683C332.241 161.325 342.455 158.191 353.093 160.355C363.164 162.408 372.882 169.013 376.805 180.109C384.496 201.816 371.11 227.898 347.265 231.73L347.281 231.732ZM344.745 200.026C342.752 204.934 334.323 208.92 329.33 207.782C321.78 206.057 318.546 200.651 317.484 193.036C314.899 201.192 317.283 210.719 322.959 216.645C329.213 223.174 338.161 226.365 347.531 224.116C365.173 219.86 375.861 200.999 370.007 183.515C365.586 170.299 350.219 164.768 338.104 169.052C343.13 170.937 348.766 172.956 350.397 176.515C352.062 180.157 352.084 186.998 350.844 189.396L337.267 189.77L344.73 200.023L344.745 200.026Z" fill="black"/>
<path d="M298.315 256.882C293.26 281.457 272.079 294.562 249.22 289.969C227.769 285.659 213.178 263.915 217.686 241.19C222.264 218.146 243.049 203.633 264.855 207.244C287.675 211.026 303.304 232.612 298.3 256.88L298.315 256.882ZM252.218 281.897C273.422 285.518 290.168 269.079 290.95 249.914C291.742 230.688 275.85 213.684 255.625 215.249C238.329 216.594 225.593 230.895 225.224 247.792C224.889 262.879 234.486 278.875 252.203 281.895L252.218 281.897Z" fill="black"/>
<path d="M289.676 198.539L294.671 196.835C295.845 196.432 296.405 201.39 295.663 202.513C292.014 207.964 282.44 208.884 275.645 205.486C270.484 202.899 266.679 193.734 268.427 187.742C268.767 186.567 272.353 184.88 273.344 185.472C277.345 187.912 272.434 194.667 279.789 198.965C281.889 200.202 286.674 199.567 289.691 198.542L289.676 198.539Z" fill="black"/>
<path d="M249.457 144.246L242.203 132.844L256.428 132.562C257.209 127.813 257.524 122.166 255.208 118.825C253.353 116.129 247.925 114.192 243.312 112.107C257.221 107.209 272.674 116.56 275.347 131.994C278.332 149.154 265.352 166.13 247.928 168.149C239.222 169.167 231.329 165.253 226.082 158.562C221.447 152.652 219.764 143.653 221.065 135.992C223.429 143.005 226.267 149.071 231.542 150.509C238.467 152.381 245.634 149.984 249.442 144.243L249.457 144.246Z" fill="white"/>
<path d="M344.745 200.026L337.282 189.773L350.859 189.398C352.081 187.014 352.062 180.157 350.412 176.517C348.783 172.944 343.145 170.94 338.119 169.054C350.218 164.768 365.588 170.284 370.022 183.518C375.863 200.984 365.173 219.86 347.546 224.119C338.173 226.383 329.243 223.179 322.974 216.648C317.298 210.722 314.914 201.195 317.499 193.039C318.561 200.654 321.795 206.06 329.345 207.785C334.323 208.92 342.752 204.934 344.76 200.029L344.745 200.026Z" fill="white"/>
</svg>
