<svg width="254" height="400" viewBox="0 0 254 400" fill="none" xmlns="http://www.w3.org/2000/svg">
<g clip-path="url(#clip0_1204_473)">
<path d="M155.68 15.4802C156.3 15.8602 157.24 21.3302 160.45 23.1902C165.11 25.8902 170.61 19.8502 170.82 29.2902C162.02 32.2802 157.93 27.4902 150.58 24.4302C120.38 40.7402 93.35 71.4702 87.96 106.19C102.77 101.45 118.56 103.06 133.77 104.08C135.44 97.5302 138.62 78.3102 131.43 75.1202C124.3 71.9602 123.81 83.2002 118.84 79.7802C114.2 76.5902 122.9 65.2002 134.11 69.5302C145.81 74.0502 140.36 95.6302 141.34 105.21C156.92 110.39 171.75 117.59 184.47 128.03C187.62 128.52 203.11 103.17 217.1 110.32C225.67 114.7 222.7 130.1 217.38 128.97C211.87 127.8 219.43 120.17 214.32 116.08C208.39 111.34 193.4 128.04 189.83 132.66C200.64 142.52 208.93 154.61 214.75 168.11C216.76 169.65 230.53 140.8 231.47 138.42C240.7 115.1 242.62 90.5702 238.56 65.8902C237.89 63.8602 229.61 63.3102 226.77 60.7102C223.65 57.8602 221.85 50.8002 228.12 52.2102C229.32 52.4802 229.01 56.2902 231.37 57.1002C234.8 58.2902 242.6 57.3302 245.11 54.1902C249.23 49.0102 253.2 50.7902 251.58 54.6802C249.9 58.7202 245.1 60.3902 244.66 62.7702C243.95 66.5402 246.51 74.2802 246.73 78.7002C248.43 112.61 240.58 136.64 224.89 165.79C223.24 168.86 219.14 172.6 218.75 175.7C218.17 180.25 222.8 190.29 223.65 195.66C226.2 211.7 224.9 229.71 220.45 245.23C208.74 286.06 176.07 315.47 134.87 324.92C138.22 329.23 144.1 338 146.57 350.64C148.86 362.34 147.17 371.98 145.86 377.18C149.01 377.02 153.63 377.07 159.06 378.22C162.54 378.96 164.29 379.55 166.49 380.65C175.7 385.24 179.26 399.78 168.33 399.9C163.05 399.96 148.21 397.69 142.61 396.54C130.44 394.04 135.43 391.63 137.4 383.86C141.25 368.64 143.35 355.37 136.57 340.66C134.44 336.04 128.98 326.21 123.42 326.03C117.48 325.84 110.18 327.32 103.42 326.88C78.49 325.28 55.15 314.19 36.51 298.04C24.05 312.22 20.19 329.8 26.84 347.56C28.4 351.72 39.17 367.51 38.85 369.19C38.21 372.52 15.81 383.49 11.61 384.86C5.33 386.91 0.379999 387.65 0.00999904 379.31C-0.580001 366.21 14.69 359.22 26.03 360.84C21.58 350.31 16.26 339.29 17.07 327.4C17.93 314.79 24.3 303.71 31.02 293.44C25.73 285.67 20.15 279.34 15.53 270.99C-20.68 205.46 11.24 130.27 80.76 107C85.17 77.5502 106.42 47.5702 129.95 29.8802C135.6 25.6302 142.33 22.7602 147.81 18.7602C149.65 17.4202 151.1 12.7102 155.67 15.4802H155.68ZM105.71 109.49C25.97 115.65 -19.44 201.22 22.22 270.3C63.03 337.96 160.26 336.63 202.18 270.9C248.79 197.81 191.77 102.85 105.71 109.5V109.49ZM30.03 369.82C28.43 363.41 18.47 366.46 14.07 368.35C8.78 370.62 5.98 373.82 6.08 379.82L30.03 369.83V369.82ZM167.51 389.11C162.78 383.19 143.92 383.06 143.85 389.3C143.84 390.49 165.5 393.82 167.31 393.84C170.29 393.88 168.48 390.32 167.52 389.11H167.51Z" fill="#1D1D1B"/>
<path d="M105.71 109.49C191.77 102.84 248.79 197.8 202.18 270.89C160.26 336.62 63.03 337.95 22.22 270.29C-19.44 201.22 25.97 115.64 105.71 109.48V109.49ZM115.31 164.52C134.99 145.37 121.11 112.04 94.69 122.43C88.22 124.97 81.92 132.72 79.47 139.16C69.62 165.06 95.77 183.53 115.31 164.52ZM193.43 164.46C186.27 157.79 173.87 157.43 165.9 162.69C163.79 164.08 163.7 165.74 162.55 166.83C161.6 167.73 159.74 167.56 159.08 168.34C158.7 168.79 154.65 178.03 154.33 179.07C145.68 207.11 176.93 220.95 192.6 200.42C199.72 191.1 202.79 173.17 193.44 164.46H193.43ZM122.91 165.12C120.5 170.3 119.8 177.78 122.47 183.02C128.6 195.05 144.84 187.64 148.83 177.66L122.91 165.12ZM136.33 203.61C115.61 169.63 64.95 199.9 84.59 233.88C104.33 268.04 156.58 236.83 136.33 203.61Z" fill="#BAC973"/>
<path d="M30.03 369.82L6.07998 379.81C5.97998 373.81 8.77998 370.61 14.07 368.34C18.47 366.45 28.43 363.41 30.03 369.81V369.82Z" fill="white"/>
<path d="M136.33 203.61C156.58 236.82 104.33 268.03 84.59 233.88C64.95 199.9 115.61 169.64 136.33 203.61ZM94.29 201.42C71.18 222.69 104.73 257.81 127.42 235.06C148.52 213.91 116.87 180.64 94.29 201.42Z" fill="#1D1D1B"/>
<path d="M115.31 164.52C95.77 183.53 69.63 165.06 79.47 139.16C81.92 132.72 88.22 124.97 94.69 122.43C121.11 112.04 134.99 145.37 115.31 164.52ZM99.65 126.39C88.91 128.57 79.26 145.88 83.54 156.02C94.4 181.74 129.29 155.64 117.1 133.45C114.09 127.97 105.63 125.17 99.65 126.39Z" fill="#1D1D1B"/>
<path d="M193.43 164.46C202.79 173.18 199.71 191.1 192.59 200.42C182.69 213.38 166.58 212.64 158.23 203.27C150.46 194.55 153.83 180.84 154.31 179.07C155.06 176.34 157.43 167.63 165.89 162.68C174.03 157.91 186.05 157.58 193.42 164.45L193.43 164.46ZM191.02 192.84C195.39 183.32 191.23 166.01 181.35 165.07C168.06 163.81 158.58 173.57 157.82 186.62C157.21 197.19 164.91 204.28 173.47 204.51C179.69 204.68 183.89 201.12 185.76 199.53C186.68 198.75 189.38 196.4 191.02 192.84Z" fill="#1D1D1B"/>
<path d="M122.91 165.12L148.83 177.66C144.84 187.64 128.6 195.05 122.47 183.02C119.81 177.79 120.5 170.31 122.91 165.12Z" fill="#1D1D1B"/>
<path d="M99.65 126.39C105.63 125.17 114.09 127.97 117.1 133.45C129.3 155.63 94.41 181.74 83.54 156.02C79.26 145.88 88.91 128.58 99.65 126.39ZM107.91 144.16C117.27 143.33 111.77 132.5 105.97 130.61C92.37 126.18 81.34 156.67 98.41 159.93C103.18 160.84 112.12 154.32 111.98 149.69C111.97 149.33 107.52 147 107.91 144.16Z" fill="white"/>
<path d="M188.5 196.77C187.13 198.54 185.32 200.89 182.17 202.59C178.47 204.58 174.9 204.59 173.46 204.51C172.13 204.44 166.36 204 162.07 199.3C159.23 196.19 157.51 191.82 157.81 186.62C158.3 178.13 162.48 171.04 169 167.46C170.74 166.51 175.48 163.8 181.34 165.07C182.51 165.32 185.89 166.2 188.79 169.07C195.52 175.72 193.83 187.28 191.01 192.84C190 194.83 188.5 196.78 188.5 196.78V196.77ZM182.51 171.38C181.21 169.76 176.65 167.97 174.43 168.14C160.08 169.25 157.04 195.28 168.39 197.04C172.45 197.67 177.53 196.21 180.28 193.06C181.27 191.93 183.02 188.06 182.86 186.58C182.61 184.19 180.34 184.45 180.01 183.92C177.67 180.19 184.05 180.98 184.62 178.5C184.81 177.7 183.19 172.24 182.5 171.38H182.51Z" fill="white"/>
<path d="M107.91 144.16C107.52 147 111.97 149.33 111.98 149.69C112.12 154.32 103.18 160.84 98.41 159.93C81.34 156.66 92.38 126.18 105.97 130.61C111.77 132.5 117.26 143.33 107.91 144.16Z" fill="#1D1D1B"/>
<path d="M182.51 171.38C183.2 172.24 184.82 177.7 184.63 178.5C184.05 180.98 177.68 180.19 180.02 183.92C180.35 184.44 182.62 184.18 182.87 186.58C183.02 188.06 181.28 191.93 180.29 193.06C177.54 196.21 172.46 197.67 168.4 197.04C157.05 195.28 160.09 169.25 174.44 168.14C176.66 167.97 181.22 169.76 182.52 171.38H182.51Z" fill="#1D1D1B"/>
<path d="M148.82 12.03C150.77 7.13 156.44 0 162.28 0C167.37 0 165.95 5.24 166.75 6.06C167.02 6.34 170.42 3.66 174.28 5.99C182.59 11.01 172.15 16.27 171.86 19.67C171.72 21.24 179.49 27.1 169.31 31.01C160.65 34.34 152.87 29.51 148.82 21.98V12.03Z" fill="#050506"/>
<path d="M241.33 42.74C243.26 43.88 247.43 37.92 251.07 43.45C259.06 55.59 241.52 72.57 226.78 60.76C220.59 55.79 215.75 41.93 228.27 43.83C226.21 38.73 231.35 32.46 236.8 35.81C238.85 37.07 240.96 42.52 241.32 42.73L241.33 42.74Z" fill="#050506"/>
<path d="M160.77 15.0098C164.91 13.5698 167.96 9.41976 172.71 10.0398C172 13.3698 163.24 19.0298 164.88 21.8498C165.07 22.1698 171.29 24.2398 167.76 26.4898C164.23 28.7398 155.92 25.7898 154.31 21.9598C152.19 16.9098 154.6 7.77976 159.77 5.54976C163.29 4.02976 159.62 13.4398 160.78 15.0198L160.77 15.0098Z" fill="#FEFDFE"/>
<path d="M240.31 49.7598C242.35 50.6798 246.71 45.4798 247.18 45.8398C251.33 62.8698 228.48 65.2898 225.29 48.8298C239.67 54.6898 233.66 50.9098 232.32 42.2798C231.16 34.8198 240.34 47.6298 240.31 49.7598Z" fill="#FDFDFD"/>
</g>
<defs>
<clipPath id="clip0_1204_473">
<rect width="253.07" height="399.9" fill="white"/>
</clipPath>
</defs>
</svg>
