<svg width="1920" height="585" viewBox="0 0 1920 585" fill="none" xmlns="http://www.w3.org/2000/svg">
<path d="M-39.8106 45.9271C-40.3544 -138.826 -40.8979 305.882 -41.4309 121.119C187.391 90.6288 422.815 174.999 649.809 135.099H677.426H1980.23L1953.27 380.922C1949.51 383.482 1945.24 385.534 1940.63 387.068C1939.52 387.534 1938.29 387.907 1936.93 388.177C1935.57 388.529 1934.26 388.726 1933.02 388.798C1922.19 389.4 1911.91 388.954 1901.8 384.943C1893.3 381.575 1882.88 383.316 1875.4 388.301C1868.13 393.141 1863.75 400.81 1861.68 408.686C1859.38 417.485 1859.88 426.688 1858.93 435.57C1857.92 445.115 1858.59 454.96 1858.67 464.536C1858.99 503.887 1856.64 551.518 1814.94 575.023C1794.63 586.475 1768.45 587.978 1746.39 579.832C1723.69 571.448 1707.35 554.047 1697.84 534.18C1678.54 493.845 1689.43 449.281 1687.77 406.966C1686.76 381.316 1680.45 330.855 1647.92 324.461C1619.3 318.833 1607.6 350.867 1585.18 361.563C1560.72 373.243 1529.04 372.952 1506.57 357.231C1475.46 335.457 1464.53 292.779 1430.59 275.244C1406.91 263.015 1377.06 266.476 1352.88 277.783C1337.7 284.882 1323.67 295.277 1315.58 309.434C1298.24 339.861 1307.44 374.165 1279.31 400.126C1262.48 415.651 1238 424.522 1213.82 424.107C1190.66 423.714 1168.61 415.101 1151.55 401.328C1132.98 386.353 1123.27 366.289 1113.97 346.038C1104.5 325.425 1093.69 302.272 1070.27 291.432C1049.16 281.659 1025.93 289.411 1013.56 306.698C987.292 343.395 1001.2 387.928 1007.47 427.507C1010.88 449.115 1014.64 478.703 993.221 494.352C984.508 500.716 972.576 504.084 961.482 501.275C949.712 498.301 942.762 489.015 937.976 479.594C914.199 432.834 938.705 382.508 928.35 334.223C923.89 313.465 911.882 294.769 889.519 285.877C880.208 282.177 869.374 280.768 859.552 283.659C849.632 286.571 842.355 293.66 835.818 300.593C800.044 338.597 720.249 354.329 677.426 318.429C634.994 282.84 623.476 222.368 574.474 192.625C528.029 164.436 465.877 186.966 448.691 236.992C441.675 257.418 443.198 279.462 441.403 300.894C438.738 332.544 426.556 366.154 398.308 382.995C371.453 399.007 334.405 397.348 311.759 418.459C294.769 434.295 290.56 458.95 276.039 476.879C257.123 500.218 220.044 506.82 192.459 494.57C161.372 480.766 155.89 428.875 111.925 445.094C87.5822 454.079 94.326 474.485 83.8187 493.109C72.4521 513.245 51.0459 534.729 25.7349 536.387C19.6219 536.802 -44.3137 533.071 -44.0961 529.433C-34.4481 367.895 -39.3428 207.693 -39.8106 45.9271Z" fill="white"/>
</svg>
