<svg width="57" height="48" viewBox="0 0 57 48" fill="none" xmlns="http://www.w3.org/2000/svg">
<path d="M28.4461 47.6467C23.8552 47.6467 19.2655 47.6431 14.6746 47.6539C14.3101 47.6539 14.0975 47.5526 13.9039 47.2273C10.0933 40.8343 6.26831 34.4483 2.44694 28.0612C1.71187 26.834 0.995809 25.595 0.226309 24.3893C-0.0681911 23.927 -0.0776905 23.5779 0.21206 23.1026C2.84356 18.7825 5.45012 14.447 8.06381 10.1162C10.0077 6.89348 11.9552 3.67191 13.8873 0.440818C14.0773 0.123904 14.2839 0 14.6532 0C23.8516 0.00953125 33.0488 0.00833984 42.2472 0C42.5737 0 42.7673 0.0976953 42.9407 0.387207C47.5304 8.04199 52.1284 15.692 56.7347 23.3373C56.9081 23.6244 56.9164 23.8257 56.7418 24.1176C52.1343 31.8213 47.5351 39.5297 42.9466 47.2452C42.7495 47.5764 42.5215 47.6574 42.1664 47.6574C37.5934 47.6479 33.0191 47.6515 28.4461 47.6515V47.6491V47.6467ZM28.3855 45.165C32.5168 45.165 36.6481 45.1626 40.7794 45.1698C41.1084 45.1698 41.3435 45.1138 41.5323 44.7945C45.5888 37.9725 49.6524 31.1553 53.7339 24.3476C54.0082 23.8901 53.9987 23.5696 53.7256 23.118C49.6833 16.4271 45.6565 9.72664 41.6439 3.01783C41.3803 2.57701 41.0953 2.4257 40.5918 2.42689C32.7032 2.44238 24.8147 2.45549 16.9273 2.41498C15.9583 2.41021 15.4049 2.65326 14.8824 3.53371C10.972 10.1258 6.99387 16.6773 3.02525 23.2336C2.80081 23.6041 2.80319 23.8734 3.02644 24.2475C7.12212 31.0659 11.2047 37.8915 15.2791 44.723C15.4821 45.0626 15.7066 45.1769 16.0937 45.1746C20.1906 45.1614 24.2874 45.1662 28.3855 45.1662V45.165Z" fill="black"/>
<path d="M32.1581 21.425C31.866 22.0267 31.5596 22.6212 31.2829 23.23C30.6286 24.6728 30.0194 26.1358 29.4851 27.6275C29.3651 27.9635 29.2084 28.1148 28.8296 28.1028C27.8273 28.0743 26.8239 28.0862 25.8204 28.0957C25.5319 28.0981 25.387 28.0278 25.3882 27.6978C25.3965 24.1498 25.3941 20.6018 25.3965 17.0538C25.3965 17.0073 25.4179 16.9596 25.4404 16.8691C26.0366 17.2754 26.6458 17.572 27.3773 17.5482C28.0945 17.5244 28.6835 17.2277 29.3058 16.7011V20.3492C29.6323 20.3087 29.6109 20.0704 29.6858 19.9215C31.1761 16.943 33.2352 14.5041 36.3167 13.1042C39.5289 11.6448 42.5369 12.2274 45.2741 14.304C46.4687 15.2095 47.0541 16.5689 47.3653 18.02C47.731 19.7273 47.7358 21.4417 47.3118 23.1418C46.5863 26.0536 44.5616 27.8813 41.6011 28.3149C40.4314 28.4865 39.2606 28.4948 38.0968 28.2792C34.9072 27.6882 32.8956 25.5806 32.4158 22.3448C32.3719 22.0493 32.3327 21.7538 32.2911 21.4572L32.1593 21.4238L32.1581 21.425ZM36.4759 20.4743C36.4747 21.506 36.6065 22.514 37.0471 23.4588C37.6325 24.7133 38.5861 25.427 40.0039 25.4055C41.4278 25.3841 42.3789 24.6287 42.8884 23.3539C43.646 21.4584 43.6448 19.5223 42.9074 17.6209C42.3979 16.3055 41.4016 15.5824 39.9683 15.5752C38.5386 15.5681 37.5636 16.2817 36.996 17.5792C36.5934 18.5013 36.4747 19.4771 36.4747 20.4731L36.4759 20.4743Z" fill="black"/>
<path d="M21.0408 20.3075C21.2237 20.3731 21.3163 20.4112 21.4113 20.4398C23.6236 21.0927 24.4976 22.5855 23.9977 24.8492C23.7008 26.1943 22.8672 27.0723 21.6263 27.5894C20.5896 28.0207 19.4935 28.1601 18.382 28.1649C16.3253 28.1744 14.2673 28.1589 12.2106 28.1756C11.8187 28.1792 11.694 28.0779 11.6952 27.6669C11.7094 22.8738 11.7047 18.0808 11.7047 13.2878C11.7047 13.0554 11.6394 12.8053 12.0324 12.8112C14.5654 12.8481 17.0983 12.7469 19.6301 12.8696C20.3129 12.9029 20.9743 13.0733 21.5978 13.3652C23.0263 14.0348 23.7186 15.1738 23.7163 16.7428C23.7139 18.3179 23.0156 19.4473 21.5586 20.0812C21.4196 20.1419 21.2807 20.2027 21.0396 20.3075H21.0408ZM15.7743 23.4481C15.7743 23.9413 15.7743 24.4346 15.7743 24.9278C15.7743 25.1018 15.76 25.2781 16.0201 25.2745C16.9665 25.2614 17.9225 25.3543 18.8451 25.0565C19.4698 24.8551 19.9091 24.4751 20.0219 23.7876C20.1846 22.7976 19.6788 22.0565 18.6409 21.8004C17.7906 21.5907 16.9214 21.6741 16.0593 21.655C15.8313 21.6502 15.7695 21.7622 15.7719 21.9684C15.779 22.4616 15.7743 22.9548 15.7731 23.4481H15.7743ZM15.7743 17.2587C15.7743 17.7019 15.7754 18.1451 15.7743 18.5883C15.7743 18.7563 15.7968 18.8969 16.0118 18.8969C16.8941 18.8969 17.7835 18.9577 18.6302 18.6277C19.3617 18.3429 19.7085 17.8092 19.6467 17.0967C19.5885 16.4295 19.1954 16.0137 18.4402 15.8362C17.6529 15.6503 16.8501 15.7361 16.0545 15.7147C15.823 15.7087 15.7683 15.8278 15.7719 16.0316C15.7802 16.4402 15.7743 16.8501 15.7743 17.2587Z" fill="black"/>
<path d="M27.2846 12.6485C28.4187 12.6402 29.3343 13.5432 29.3426 14.6763C29.3509 15.8057 28.4425 16.7303 27.3143 16.7422C26.1874 16.7541 25.2683 15.8415 25.2612 14.7072C25.254 13.5647 26.1458 12.658 27.2835 12.6497L27.2846 12.6485Z" fill="black"/>
<path d="M21.0562 37.4649C21.0253 37.6782 21.0146 37.8843 20.9636 38.0785C20.8401 38.5479 20.5693 38.8637 20.0468 38.8732C19.5243 38.8827 19.2369 38.5789 19.1016 38.1131C18.9816 37.6985 18.9899 37.2731 19.0992 36.8561C19.2239 36.3796 19.5136 36.0877 20.0349 36.0889C20.5622 36.0889 20.8294 36.4094 20.9612 36.8716C21.0158 37.0658 21.0265 37.2719 21.0562 37.4638V37.4649ZM20.6845 37.3172C20.6762 37.2648 20.6584 37.0789 20.612 36.899C20.5337 36.6 20.3734 36.3486 20.0314 36.3546C19.6977 36.3605 19.5279 36.6012 19.4436 36.9014C19.3201 37.3387 19.3212 37.7759 19.4899 38.2012C19.5837 38.4371 19.7487 38.6027 20.0242 38.598C20.295 38.5932 20.4601 38.4336 20.5622 38.2C20.6655 37.9618 20.6904 37.7092 20.6845 37.3172Z" fill="black"/>
<path d="M42.7803 38.6991C42.2163 38.9636 41.9123 38.9017 41.7116 38.4823C41.4551 37.9462 41.613 37.1074 42.0085 36.8989C42.1676 36.8155 42.3338 36.8048 42.5013 36.8668C42.5642 36.8894 42.6295 36.9764 42.6746 36.9633C43.4596 36.7417 43.0748 37.3683 43.1116 37.6162C43.1698 38.0165 43.1342 38.4323 43.1259 38.8409C43.1128 39.5307 42.6224 39.8786 41.9514 39.6832C41.8374 39.6499 41.6902 39.6296 41.7175 39.4712C41.7531 39.2603 41.8992 39.3973 41.9966 39.4128C42.6319 39.52 42.8468 39.327 42.7803 38.6979V38.6991ZM42.8219 37.8711C42.7874 37.5232 42.8171 37.1098 42.3837 37.1003C41.9087 37.0896 41.9419 37.5256 41.9206 37.858C41.9123 37.9903 41.942 38.1285 41.9693 38.2607C42.012 38.4632 42.1331 38.6038 42.3481 38.611C42.5903 38.6205 42.7174 38.4609 42.7708 38.2452C42.8029 38.1154 42.8076 37.9772 42.8207 37.8699L42.8219 37.8711Z" fill="black"/>
<path d="M17.3393 38.1453C17.2716 38.3312 17.4889 38.6528 17.1659 38.7839C16.7729 38.9423 16.3644 38.9292 15.9927 38.6957C15.4844 38.3776 15.2861 37.5258 15.5497 36.8467C15.7742 36.2664 16.286 35.9948 16.9486 36.1068C17.0959 36.1318 17.3049 36.1366 17.2752 36.3403C17.2324 36.6274 17.0306 36.4082 16.9189 36.3927C16.3596 36.3165 15.9772 36.5393 15.83 37.0599C15.6637 37.6461 15.9036 38.3609 16.3466 38.523C16.5734 38.6052 16.9154 38.7231 16.989 38.3967C17.0401 38.1655 17.2633 37.7343 16.7444 37.6294C16.6494 37.6103 16.5829 37.5686 16.5971 37.4662C16.6126 37.359 16.7099 37.3637 16.7919 37.3494C17.3037 37.2601 17.3393 37.3089 17.3393 38.1441V38.1453Z" fill="black"/>
<path d="M35.2255 37.0437C35.2255 36.6756 35.2231 36.392 35.2267 36.1085C35.2279 36.0001 35.2635 35.9012 35.4025 35.9179C35.5034 35.9298 35.539 36.0084 35.539 36.1001C35.5426 36.9496 35.545 37.7991 35.5426 38.6474C35.5426 38.7058 35.5105 38.788 35.4666 38.8142C35.4238 38.8392 35.3431 38.8177 35.2849 38.7975C34.9203 38.676 34.4536 39.1227 34.1579 38.5664C33.9169 38.1136 33.9834 37.2034 34.3278 36.9449C34.6104 36.7328 34.8918 36.8293 35.2267 37.0426L35.2255 37.0437ZM34.3171 37.7991C34.3586 38.1827 34.3111 38.6176 34.7956 38.5997C35.2314 38.583 35.2018 38.1684 35.2113 37.8503C35.216 37.6847 35.1851 37.5108 35.1353 37.3511C35.0795 37.1748 34.9358 37.0747 34.7458 37.0854C34.5783 37.0938 34.4548 37.1939 34.4073 37.3511C34.3586 37.5108 34.3408 37.6811 34.3183 37.7991H34.3171Z" fill="black"/>
<path d="M30.6227 31.9304C31.4552 31.6433 31.7045 31.8244 31.7069 32.6703C31.7069 32.9586 31.7093 33.2481 31.7057 33.5364C31.7045 33.652 31.7223 33.8009 31.5442 33.7914C31.3744 33.7818 31.3993 33.6341 31.3982 33.5197C31.3958 33.1802 31.397 32.8395 31.3946 32.4999C31.3934 32.2759 31.3233 32.0758 31.0716 32.0615C30.808 32.046 30.6655 32.2247 30.6488 32.4737C30.6263 32.812 30.6346 33.1528 30.6215 33.4923C30.6168 33.6162 30.6678 33.7997 30.4553 33.7938C30.2855 33.789 30.3128 33.6317 30.3128 33.5186C30.3104 32.7203 30.3116 31.9209 30.3128 31.1226C30.3128 31.0011 30.3128 30.8677 30.4897 30.8808C30.6322 30.8915 30.6215 31.013 30.6227 31.1119C30.6263 31.3812 30.6227 31.6492 30.6227 31.9316V31.9304Z" fill="black"/>
<path d="M27.0151 38.197C27.1897 37.6144 27.3595 37.0306 27.5412 36.4503C27.5875 36.3026 27.5982 36.0465 27.8357 36.1334C28.0352 36.2061 27.8784 36.3955 27.8392 36.523C27.6386 37.189 27.4284 37.8526 27.2194 38.5174C27.1754 38.658 27.1719 38.8367 26.9652 38.8486C26.7551 38.8606 26.7325 38.6914 26.6886 38.546C26.4819 37.8634 26.2694 37.1831 26.0734 36.4968C26.0402 36.3789 25.8585 36.1942 26.1067 36.1239C26.3489 36.0548 26.3572 36.2859 26.4036 36.442C26.5734 37.027 26.742 37.6132 26.9118 38.1993L27.0151 38.197Z" fill="black"/>
<path d="M13.7293 37.4703C13.7293 37.1474 13.7495 36.8222 13.7246 36.5017C13.6996 36.18 13.822 36.0728 14.1307 36.1037C14.3492 36.1252 14.5713 36.1085 14.791 36.1121C14.8788 36.1133 14.9667 36.1335 14.9691 36.2431C14.9715 36.3456 14.8966 36.3873 14.8028 36.3921C14.7351 36.3956 14.6675 36.4028 14.5998 36.3968C14.2661 36.3706 14.031 36.3849 14.0381 36.8591C14.044 37.3071 14.2637 37.3011 14.576 37.2951C14.7031 37.2928 14.937 37.2046 14.9216 37.4488C14.9109 37.6323 14.7055 37.5549 14.5831 37.562C14.1295 37.5894 13.8505 38.06 14.0796 38.4472C14.2115 38.6712 14.4513 38.5247 14.6378 38.5676C14.772 38.5985 15.0106 38.4806 15.0166 38.6903C15.0249 38.956 14.7636 38.8428 14.6211 38.8475C13.7293 38.8749 13.7293 38.8702 13.7293 37.9802C13.7293 37.8098 13.7293 37.6406 13.7293 37.4703Z" fill="black"/>
<path d="M21.7972 37.9794C21.7972 38.182 21.8067 38.3357 21.7937 38.4858C21.7818 38.6204 21.8649 38.8468 21.6262 38.8325C21.4006 38.8182 21.4885 38.5954 21.4873 38.4631C21.4778 37.7328 21.4778 37.0025 21.4873 36.2709C21.4885 36.1423 21.4018 35.91 21.65 35.9266C21.8732 35.9421 21.7889 36.1625 21.7925 36.2972C21.8032 36.6963 21.7961 37.0966 21.7961 37.5279C22.2164 37.3837 22.2651 36.8285 22.7342 36.85C22.7449 36.8917 22.7662 36.925 22.7579 36.9453C22.6142 37.2836 22.0668 37.4409 22.2081 37.8674C22.3186 38.1998 22.6356 38.4631 22.9408 38.8599C22.2568 38.842 22.2544 38.1772 21.7961 37.9782L21.7972 37.9794Z" fill="black"/>
<path d="M39.3057 37.8742C39.3057 37.9255 39.3057 37.9755 39.3057 38.0267C39.3057 38.8274 39.2096 38.9203 38.4306 38.8726C38.1337 38.8548 37.9437 38.6904 37.9247 38.402C37.8962 37.9624 37.9069 37.5204 37.9069 37.0796C37.9069 36.9807 37.9069 36.8604 38.0494 36.8604C38.2227 36.8604 38.2109 36.9998 38.2121 37.1177C38.2156 37.4573 38.2121 37.7968 38.2168 38.1352C38.2204 38.3734 38.2786 38.595 38.5719 38.5915C38.8391 38.5879 38.9566 38.3973 38.9697 38.1518C38.9851 37.8468 38.9721 37.5406 38.9851 37.2356C38.9911 37.0986 38.9103 36.8806 39.1336 36.8675C39.3711 36.8532 39.2962 37.076 39.3034 37.2118C39.3141 37.4322 39.3057 37.6526 39.3057 37.873V37.8742Z" fill="black"/>
<path d="M41.195 37.9041C41.195 38.1865 41.1998 38.3914 41.1926 38.5963C41.1891 38.7107 41.2057 38.8572 41.0204 38.8382C40.8827 38.8239 40.8839 38.7083 40.8827 38.6059C40.8803 38.2818 40.8827 37.9577 40.8803 37.6337C40.8779 37.3871 40.8696 37.1154 40.5383 37.113C40.2058 37.1106 40.1298 37.368 40.1227 37.6456C40.1156 37.953 40.1227 38.2592 40.1179 38.5665C40.1168 38.6833 40.1322 38.8298 39.9659 38.8394C39.7938 38.8489 39.7997 38.7012 39.7985 38.5832C39.7938 38.0888 39.7938 37.5944 39.7914 37.0999C39.7914 36.9975 39.8365 36.8187 39.9078 36.8724C40.2604 37.1416 40.625 36.6186 40.9729 36.9248C41.3221 37.2322 41.1309 37.6289 41.195 37.9053V37.9041Z" fill="black"/>
<path d="M28.294 33.0136C28.294 33.1327 28.3059 33.2531 28.2916 33.3698C28.2667 33.5688 28.4234 33.9977 27.9342 33.6736C27.8914 33.645 27.7632 33.7642 27.667 33.7928C27.3404 33.8893 27.0364 33.8523 26.907 33.4985C26.7728 33.1303 26.8904 32.8277 27.2751 32.674C27.3677 32.6371 27.4734 32.6359 27.5708 32.6085C27.7371 32.562 28.0458 32.6931 27.971 32.3297C27.9152 32.0593 27.6955 32.0116 27.4544 32.0474C27.3891 32.0569 27.325 32.0843 27.2621 32.1093C27.1813 32.1415 27.0911 32.1808 27.0519 32.0712C27.0186 31.9783 27.0946 31.9223 27.1718 31.8746C27.6492 31.5815 28.2489 31.8889 28.2892 32.4536C28.3023 32.6395 28.2916 32.8277 28.2916 33.0136H28.294ZM27.6646 32.8218C27.4057 32.8516 27.1754 32.9457 27.1872 33.2769C27.1956 33.5068 27.3487 33.6069 27.5672 33.5795C27.8748 33.539 27.9829 33.321 27.9959 33.0398C28.0066 32.8087 27.8392 32.8194 27.6658 32.8218H27.6646Z" fill="black"/>
<path d="M22.9954 37.8077C23.0097 37.1596 23.3149 36.8034 23.8326 36.8284C24.3254 36.8522 24.5985 37.2406 24.5831 37.8959C24.5677 38.5428 24.2625 38.8991 23.7447 38.874C23.2495 38.8502 22.9812 38.4678 22.9954 37.8077ZM23.3172 37.8494C23.3267 37.9519 23.3243 38.0734 23.3505 38.189C23.4075 38.4439 23.5417 38.656 23.8326 38.6048C24.2601 38.5297 24.2482 38.164 24.2494 37.8423C24.2494 37.5158 24.2423 37.1524 23.816 37.0917C23.5274 37.0512 23.4015 37.2764 23.3481 37.5301C23.3267 37.629 23.3279 37.7327 23.3184 37.8506L23.3172 37.8494Z" fill="black"/>
<path d="M30.9481 37.8364C30.954 37.1811 31.2437 36.8189 31.7544 36.8273C32.2567 36.8356 32.5357 37.2085 32.531 37.8662C32.5262 38.5203 32.2365 38.8813 31.7235 38.8741C31.2188 38.8658 30.9409 38.4941 30.9469 37.8364H30.9481ZM32.2092 37.8626C32.2116 37.6732 32.2032 37.4861 32.1071 37.317C32.0037 37.1347 31.8446 37.0286 31.6427 37.1013C31.2521 37.2407 31.277 37.5922 31.2794 37.915C31.2817 38.2117 31.3079 38.5167 31.6665 38.6037C31.8707 38.6537 32.0263 38.5524 32.1201 38.3606C32.1985 38.2022 32.2068 38.033 32.208 37.8626H32.2092Z" fill="black"/>
<path d="M35.9974 37.8103C35.9974 37.6399 35.9903 37.4707 35.9998 37.3004C36.0116 37.0788 35.8739 36.6606 36.3596 36.9977C36.3679 37.0037 36.3904 36.987 36.4071 36.9846C37.3951 36.8703 37.4058 36.8798 37.4058 37.8603C37.4058 38.1153 37.4057 38.3702 37.4022 38.624C37.401 38.7277 37.3891 38.8373 37.2502 38.8408C37.1077 38.8432 37.0994 38.7289 37.0982 38.6276C37.0934 38.288 37.0982 37.9485 37.0934 37.6089C37.0887 37.3587 37.0531 37.1038 36.7265 37.1097C36.4261 37.1145 36.3358 37.3492 36.3228 37.603C36.3061 37.9413 36.3156 38.2821 36.3085 38.6216C36.3061 38.7229 36.299 38.8385 36.1589 38.8373C36.0259 38.8373 36.0009 38.7324 36.0009 38.624C35.9986 38.3524 36.0009 38.0807 36.0009 37.8091H35.9986L35.9974 37.8103Z" fill="black"/>
<path d="M25.0557 32.7631C25.0557 32.576 25.0497 32.3878 25.0557 32.2007C25.064 31.9875 24.9642 31.6229 25.3882 31.9434C25.4618 31.9994 25.4998 31.9029 25.5556 31.8826C26.1434 31.6753 26.4332 31.8635 26.4581 32.4831C26.4712 32.8226 26.4617 33.1646 26.4593 33.5041C26.4593 33.6197 26.4866 33.7734 26.3203 33.7841C26.109 33.7996 26.147 33.6173 26.1434 33.491C26.1351 33.1503 26.1434 32.8095 26.1315 32.47C26.1232 32.2484 26.0413 32.0518 25.78 32.0577C25.5437 32.0637 25.4012 32.2281 25.3858 32.4521C25.3597 32.8083 25.3704 33.1669 25.3656 33.5232C25.3644 33.6423 25.3739 33.7865 25.2088 33.79C25.0355 33.7936 25.0569 33.6423 25.0545 33.5268C25.0509 33.2718 25.0545 33.0156 25.0533 32.7607L25.0557 32.7631Z" fill="black"/>
<path d="M28.0268 37.8346C28.0245 37.5737 28.0637 37.3199 28.2263 37.1114C28.4686 36.8004 28.7904 36.7278 29.1265 36.9255C29.4613 37.1233 29.5421 37.4783 29.4518 37.8179C29.3853 38.0645 29.0956 37.8918 28.9175 37.9513C28.7322 38.0121 28.37 37.7559 28.3878 38.1705C28.4033 38.5339 28.674 38.6817 29.041 38.6233C29.1419 38.6078 29.2939 38.4684 29.339 38.64C29.3865 38.8234 29.1906 38.8318 29.0659 38.858C28.4258 38.9926 28.0197 38.5911 28.028 37.8358L28.0268 37.8346ZM28.7049 37.7119C28.8474 37.6404 29.1466 37.8477 29.1478 37.4903C29.1478 37.2698 29.0327 37.078 28.7892 37.0697C28.5173 37.059 28.4068 37.2687 28.3748 37.501C28.3392 37.7583 28.5553 37.6797 28.7037 37.7119H28.7049Z" fill="black"/>
<path d="M28.6788 32.8439C28.6681 32.1302 29.1443 31.6644 29.7392 31.8026C29.8401 31.8264 29.9541 31.8383 29.9375 31.9789C29.9185 32.1481 29.795 32.0611 29.7048 32.0635C29.2024 32.0719 29.0053 32.2958 29.0148 32.8415C29.0243 33.349 29.2143 33.5421 29.7202 33.548C29.814 33.5492 29.9387 33.4777 29.953 33.6398C29.9648 33.7732 29.8425 33.7922 29.7463 33.8196C29.187 33.9793 28.6883 33.523 28.6788 32.8451V32.8439Z" fill="black"/>
<path d="M29.8699 37.8003C29.8699 37.6133 29.8699 37.4274 29.8699 37.2403C29.8706 37.0243 29.9771 36.9393 30.1893 36.9854C30.2024 36.9878 30.2154 37.008 30.2261 37.0068C30.3995 36.9901 30.6014 36.6542 30.7237 36.9484C30.8282 37.1998 30.4114 37.0974 30.3175 37.2928C30.2261 37.4846 30.1857 37.6728 30.1881 37.8789C30.1893 38.0648 30.2024 38.253 30.1834 38.4377C30.1691 38.5831 30.2843 38.8333 30.0171 38.8285C29.7974 38.8249 29.8841 38.5962 29.8758 38.4603C29.8627 38.2411 29.8722 38.0195 29.8722 37.7991H29.8699V37.8003Z" fill="black"/>
<path d="M33.1236 36.8545C33.2697 37.181 33.4443 36.8784 33.626 36.851C33.6794 36.8426 33.7637 36.8736 33.7946 36.9165C33.8314 36.9654 33.8314 37.0702 33.7554 37.0904C33.0963 37.2692 33.2816 37.8112 33.2483 38.2592C33.24 38.3772 33.2495 38.4963 33.2448 38.6143C33.24 38.712 33.2495 38.8311 33.1082 38.8406C32.974 38.849 32.9396 38.7513 32.9384 38.6417C32.9336 38.0996 32.9325 37.5575 32.9313 37.0154C32.9313 36.9189 32.9764 36.8581 33.1225 36.8557L33.1236 36.8545Z" fill="black"/>
</svg>
