<svg width="107" height="48" viewBox="0 0 107 48" fill="none" xmlns="http://www.w3.org/2000/svg">
<path d="M53.0739 47.6551C35.7873 47.6551 18.5019 47.6551 1.21527 47.6551C0.418399 47.6551 0.0199612 47.2512 0.0199612 46.4434C0.0235471 38.1584 -0.0445852 29.8721 0.0522351 21.5871C0.132321 14.6877 0.0809221 7.78822 0.126344 0.888788C0.132321 0.0202529 0.147859 0 1.01685 0C35.7216 0 70.4263 0 105.131 0C106.011 0 106.018 0.00714886 106.018 0.882832C106.018 16.1793 106.018 31.4746 106.018 46.771C106.018 47.6515 106.013 47.6539 105.065 47.6539C87.7344 47.6539 70.4048 47.6539 53.0739 47.6539V47.6551ZM23.8091 35.8423C23.3943 37.1707 23.0214 38.2942 22.6974 39.432C22.5671 39.8895 22.3329 40.1969 21.9193 40.4304C20.8698 41.0213 19.8394 41.6432 18.7302 42.2937C19.4689 42.4188 20.1371 42.5189 20.7993 42.6488C21.6766 42.8215 21.6993 42.8668 21.471 43.7425C21.22 44.7063 20.9618 45.669 20.706 46.6328C20.7658 46.6698 20.8256 46.7079 20.8853 46.7448C20.9714 46.6233 21.0479 46.4922 21.1471 46.3826C21.8858 45.5677 22.646 44.7707 23.3632 43.9379C23.7111 43.534 24.0649 43.472 24.5275 43.6865C25.0474 43.9272 25.5781 44.144 26.1053 44.368C26.2415 44.4263 26.3874 44.5586 26.532 44.4406C26.6766 44.3227 26.5822 44.1535 26.5404 44.0105C26.3133 43.2302 26.0945 42.4462 25.8483 41.6718C25.7335 41.3096 25.7706 41.0165 25.975 40.6818C28.2544 36.9384 31.1519 33.737 34.5669 31.0016C42.0699 24.9909 50.3785 20.4422 59.5429 17.4624C59.6386 17.4315 59.8047 17.4529 59.8155 17.2408C57.1141 17.5566 54.586 18.4072 52.1165 19.4187C45.1777 22.2626 38.7612 26.0132 32.8684 30.637C30.0187 32.8733 27.3376 35.2883 25.3044 38.3252C25.0247 38.7433 24.8825 38.5813 24.7546 38.2251C24.4892 37.4888 24.2717 36.7334 23.8091 35.8423ZM28.6656 20.653C28.613 20.6661 28.5604 20.678 28.5078 20.6912C28.2568 21.5085 27.9771 22.3174 27.7656 23.1443C27.6054 23.7709 27.2982 24.1617 26.6551 24.3905C25.7849 24.7014 24.9195 25.0636 24.0613 25.6295C24.8478 25.8464 25.522 26.0453 26.2033 26.2169C26.6133 26.3205 26.7328 26.5147 26.5953 26.9317C26.3025 27.8229 26.0491 28.726 25.7789 29.6243C26.6384 28.9726 27.4237 28.2816 28.154 27.5358C28.5234 27.1593 28.8473 27.0842 29.3159 27.3166C29.9147 27.6132 30.5411 27.8539 31.2344 28.1529C31.1268 27.3583 30.9487 26.7006 30.6929 26.0775C30.4538 25.4961 30.5733 25.1017 31.0395 24.7002C31.6204 24.1987 32.1416 23.6315 32.7954 22.987C31.8248 22.9501 31.0658 23.0895 30.3116 23.242C29.9195 23.3206 29.6984 23.211 29.5537 22.8262C29.2788 22.0934 28.9621 21.375 28.662 20.6506L28.6656 20.653ZM40.8279 42.8465C40.9044 42.7929 40.9809 42.7405 41.0574 42.6869C40.9068 41.8124 40.7837 40.932 40.5972 40.0646C40.4837 39.5321 40.5972 39.146 41.0096 38.7791C41.6384 38.2179 42.3304 37.7152 42.9424 36.9431C42.1882 36.9431 41.5499 36.9062 40.9176 36.9538C40.2482 37.0039 39.9709 36.7239 39.8705 36.0853C39.751 35.324 39.6685 34.546 39.3326 33.6644C39.0135 34.6473 38.7063 35.4682 38.4863 36.3129C38.3369 36.8848 38.0309 37.0766 37.4607 37.104C36.7292 37.1397 35.9845 37.1814 35.1717 37.4721C35.7753 37.9928 36.2786 38.4824 36.8404 38.8935C37.3532 39.2687 37.4536 39.6667 37.2336 40.2517C36.9049 41.1285 36.6455 42.0304 36.3575 42.9228C37.1225 42.3819 37.7966 41.7957 38.4325 41.1726C38.7792 40.8319 39.0326 40.8212 39.3505 41.1964C39.8275 41.76 40.3355 42.2973 40.8303 42.8465H40.8279ZM37.8134 15.5204C37.4524 14.7568 37.1906 14.1575 36.8882 13.5796C36.6862 13.1924 36.7376 12.947 37.1284 12.7183C37.6902 12.3906 38.2222 12.0129 38.9322 11.5483C37.9699 11.4875 37.2109 11.4053 36.4519 11.4041C35.963 11.4041 35.6833 11.2254 35.4789 10.7941C35.2124 10.2306 34.9291 9.66826 34.476 9.08328C34.2465 9.74689 34.0194 10.314 33.8569 10.899C33.717 11.3994 33.4194 11.5924 32.9162 11.6496C32.0268 11.7496 31.1375 11.8795 30.1263 12.2536C30.9977 12.5491 31.7113 12.8124 32.4392 13.0328C32.9209 13.1793 33.0728 13.4212 32.8899 13.9073C32.6699 14.4946 32.499 15.0999 32.3066 15.698C33.1409 15.3251 33.8652 14.8807 34.5621 14.3946C34.9362 14.1337 35.2685 14.1086 35.6582 14.3338C36.3037 14.7055 36.9635 15.0546 37.8122 15.5216L37.8134 15.5204ZM45.7933 8.47805L45.9343 8.36844C45.6917 7.71316 45.4753 7.04479 45.1968 6.405C44.9816 5.91176 45.0785 5.62701 45.5889 5.43996C46.0754 5.26125 46.5463 5.03608 47.175 4.76682C46.3013 4.37604 45.5458 4.16635 44.7808 4.00908C44.3015 3.91019 44.0003 3.68859 43.8007 3.24182C43.4935 2.5508 43.1337 1.88361 42.7356 1.08418C42.4225 1.75852 42.34 2.32205 42.2312 2.87129C42.1332 3.3693 41.8726 3.51226 41.3921 3.45031C40.657 3.35619 39.9159 3.30377 39.176 3.23348C39.6661 3.70766 40.1992 4.07699 40.7323 4.44752C41.6766 5.1028 41.667 5.10041 41.422 6.20246C41.3264 6.63137 41.1327 7.05074 41.1913 7.58687C41.7268 7.32596 42.2205 7.13176 42.6663 6.85893C43.2162 6.52176 43.6441 6.53367 44.1174 7.02096C44.6326 7.54994 45.2315 7.99791 45.7945 8.48162L45.7933 8.47805ZM55.2052 42.2246C55.2577 42.1925 55.3091 42.1603 55.3617 42.1281C55.1896 41.4752 55.0259 40.82 54.843 40.1706C54.5812 39.239 54.5764 39.2425 55.4466 38.8649C55.8124 38.7064 56.1722 38.5337 56.6503 38.3144C55.8542 37.9534 55.2255 37.6365 54.5716 37.3839C54.1342 37.2148 53.9011 36.9407 53.7875 36.4999C53.5939 35.7505 53.368 35.0095 53.1086 34.1028C52.9197 34.8129 52.7655 35.3371 52.6424 35.8685C52.5324 36.3427 52.2934 36.4725 51.8332 36.2819C51.1889 36.0162 50.5339 35.7732 49.6972 35.598C50.3151 36.3153 50.8088 36.9527 51.3718 37.5222C51.8583 38.0142 51.918 38.4955 51.6539 39.1151C51.3969 39.7167 51.2331 40.3565 51.0275 40.9808C51.6826 40.7806 52.1989 40.5376 52.6711 40.2254C53.148 39.9109 53.4528 40.0205 53.7732 40.4542C54.2238 41.0654 54.7246 41.6385 55.204 42.2282L55.2052 42.2246ZM55.4944 1.02342C55.443 1.01865 55.3904 1.01389 55.339 1.00912C55.1597 1.61197 54.9589 2.21125 54.8071 2.82125C54.6948 3.27398 54.4796 3.36692 54.0433 3.22156C53.5437 3.05596 53.0763 2.7581 52.4033 2.73904C52.793 3.2156 53.0667 3.65166 53.4373 3.98049C54.1616 4.62504 54.2752 5.34822 53.9513 6.22272C53.8437 6.51223 53.5915 6.93518 53.8521 7.13533C54.0947 7.32119 54.4736 7.01262 54.7426 6.84463C55.3032 6.49317 55.6809 6.57418 56.0431 7.14367C56.3921 7.69291 56.8344 8.18258 57.236 8.69727C57.2324 7.95264 57.1272 7.28068 56.9288 6.63732C56.7555 6.07141 56.9336 5.77475 57.4559 5.57102C57.8671 5.41018 58.2568 5.19215 58.7887 4.93481C58.0369 4.66078 57.4667 4.43084 56.881 4.24617C56.4566 4.11274 56.2295 3.87445 56.1303 3.43363C55.9486 2.62348 55.7096 1.82524 55.4944 1.02223V1.02342ZM73.8951 26.6661C73.1851 26.6661 72.6376 26.647 72.0925 26.6708C71.5259 26.6958 71.1913 26.485 71.0299 25.9179C70.853 25.2983 70.5948 24.7026 70.3151 23.9401C70.1203 24.6204 69.9362 25.1184 69.8429 25.6319C69.727 26.2729 69.3828 26.3968 68.8078 26.2443C68.2604 26.1001 67.701 26.0001 67.1475 25.8797C67.5025 26.3765 67.8946 26.7912 68.35 27.1188C68.968 27.5632 69.2525 28.0445 68.8413 28.7772C68.7253 28.9845 68.6823 29.2323 68.6106 29.4635C68.5711 29.5874 68.5102 29.7232 68.6249 29.8328C68.7433 29.946 68.8759 29.8721 68.9919 29.8173C69.3505 29.6481 69.721 29.4956 70.0593 29.2907C70.4765 29.037 70.81 29.0786 71.1996 29.3765C71.6335 29.7089 72.0591 30.0902 72.7057 30.2629C72.4858 29.7482 72.3268 29.3169 72.1212 28.9083C71.9025 28.4734 71.9849 28.1911 72.4045 27.923C72.8994 27.6085 73.4134 27.2987 73.8951 26.6649V26.6661ZM74.7963 19.9727C74.8585 20.0252 74.9218 20.0776 74.984 20.1288C75.4131 19.663 75.8637 19.215 76.2666 18.7277C76.661 18.2512 77.0746 18.138 77.6483 18.4156C78.0105 18.5907 78.5317 18.9398 78.7946 18.6753C79.0457 18.4239 78.6823 17.9033 78.5221 17.5399C78.2424 16.9037 78.3345 16.4247 78.8771 15.9827C79.2154 15.7063 79.5011 15.3644 79.7951 15.0391C79.8979 14.9247 80.0987 14.8247 79.9398 14.5602C79.4078 14.7472 78.8664 14.9188 78.3404 15.1285C77.94 15.2881 77.7284 15.1988 77.6208 14.7711C77.5025 14.3005 77.3352 13.8418 77.1893 13.3783C76.8296 14.0407 76.5929 14.6757 76.3933 15.3215C76.2761 15.7015 76.0454 15.9053 75.6653 15.9922C75.0964 16.1245 74.5334 16.2782 73.8018 16.4652C74.3314 16.7893 74.7055 17.0478 75.1071 17.2539C75.5004 17.4553 75.5745 17.7126 75.4251 18.1118C75.1956 18.7241 75.0031 19.352 74.7939 19.9727H74.7963ZM65.0521 37.6711C64.7414 36.9241 64.5119 36.3307 64.2489 35.7529C64.0576 35.3323 64.1843 35.106 64.6015 34.9475C65.0641 34.7724 65.5088 34.552 66.1112 34.2851C65.3462 34.0671 64.7629 33.8776 64.1688 33.7382C63.5903 33.6024 63.2687 33.2712 63.1145 32.7005C62.9568 32.112 62.7249 31.5425 62.5264 30.9646C62.2671 31.4079 62.1165 31.8201 62.0196 32.2454C61.9121 32.7184 61.7244 32.8769 61.2415 32.6338C60.7442 32.3824 60.2111 32.2025 59.6947 31.9916C60.0282 32.6219 60.4131 33.158 60.8805 33.6108C61.3371 34.054 61.4447 34.5055 61.2379 35.0893C61.1016 35.4741 61.0287 35.8804 60.9199 36.3081C61.3921 36.3176 61.7256 36.1258 62.0507 35.9721C62.5958 35.7136 62.983 35.8113 63.3847 36.2581C63.8353 36.7585 64.3146 37.2493 65.0521 37.6723V37.6711ZM68.9536 2.86295C68.9034 2.86295 68.8544 2.86057 68.8042 2.86057C68.6333 3.39193 68.4241 3.91496 68.3034 4.45705C68.16 5.10279 67.7834 5.24338 67.1917 5.13734C66.7985 5.06705 66.3945 5.0599 65.9964 5.02416C65.9319 5.11947 65.8673 5.21479 65.8028 5.30891C66.2188 5.63416 66.6276 5.96895 67.0531 6.28229C67.5037 6.61469 67.5324 7.00309 67.328 7.49394C67.1296 7.97051 66.9993 8.47447 66.7961 9.10115C67.3866 8.79854 67.7488 8.45422 68.1229 8.13254C68.4301 7.86924 68.6692 7.8609 68.968 8.16351C69.3134 8.5126 69.7127 8.80926 70.088 9.12855C70.1059 8.51975 70.033 7.98123 69.8943 7.4594C69.7653 6.97449 69.8573 6.63137 70.2721 6.31565C70.7251 5.97252 71.1219 5.55553 71.6204 5.10041C71.0036 5.0051 70.5446 5.0468 70.0904 5.1302C69.623 5.21598 69.3887 5.03131 69.3063 4.575C69.2035 4.00193 69.072 3.43363 68.9524 2.86295H68.9536ZM79.7318 4.57381C79.7724 4.63934 79.813 4.70606 79.8549 4.77158C80.1226 4.86332 80.3856 4.97889 80.6605 5.03965C81.1387 5.14688 81.2534 5.39707 81.0968 5.851C80.9438 6.29539 80.8422 6.75766 80.7191 7.21158C81.1375 6.96258 81.4686 6.67069 81.6909 6.31207C82.12 5.61867 82.677 5.38754 83.4635 5.61033C83.9166 5.739 83.9978 5.49477 83.7755 5.16237C83.3416 4.51424 83.5066 3.99121 84.005 3.46699C84.305 3.15127 84.5381 2.77121 84.8011 2.41975C84.3266 2.51625 83.9441 2.68424 83.5843 2.89035C83.1575 3.13459 82.9412 2.99639 82.8205 2.55795C82.738 2.25652 82.6232 1.96344 82.5228 1.66678C82.4607 1.6501 82.3997 1.63461 82.3376 1.61793C82.1571 3.19535 81.5451 4.40105 79.7318 4.57262V4.57381Z" fill="black"/>
</svg>
