<svg width="48" height="49" viewBox="0 0 48 49" fill="none" xmlns="http://www.w3.org/2000/svg">
<path d="M35.0914 37.8025C35.1472 37.9899 35.0035 38.0812 34.9014 38.1857C32.0181 41.1045 29.1099 44.0006 26.2576 46.9506C24.6758 48.5854 22.5205 48.2215 21.2107 46.8918C14.4764 40.0499 7.72188 33.2285 0.974507 26.3998C-0.287806 25.1217 -0.332931 23.2059 0.892569 21.7669C1.31294 21.2732 1.79507 20.8348 2.25107 20.3711C2.32944 20.2918 2.41376 20.2198 2.53726 20.2306H2.54201C2.53963 20.4083 2.39595 20.4888 2.29263 20.5957C1.89957 21.0029 1.48513 21.3909 1.10988 21.8161C-0.153616 23.2467 -0.110868 25.0184 1.21201 26.3734C2.10026 27.2826 2.99563 28.1835 3.88982 29.0868C8.01519 33.2621 12.1406 37.4374 16.2683 41.6126C18.0068 43.3711 19.7263 45.1513 21.4969 46.8762C22.9326 48.2743 24.6746 48.2371 26.0771 46.8305C28.4675 44.433 30.8354 42.015 33.2234 39.6163C33.835 39.0013 34.3872 38.3226 35.0914 37.8049V37.8025Z" fill="black"/>
<path d="M7.41189 15.3021C7.37033 15.1112 7.52708 15.0307 7.62801 14.9298C11.8223 10.6812 16.0201 6.43509 20.2167 2.18775C20.5765 1.82379 20.9541 1.47786 21.2938 1.09589C22.7318 -0.517289 24.9441 -0.201378 26.2112 1.08388C27.2301 2.11688 28.2513 3.14869 29.2714 4.1805C33.4585 8.41703 37.6468 12.6536 41.8316 16.8913C41.9598 17.021 42.1593 17.1243 42.0964 17.3682L42.1 17.3549C41.9741 17.3213 41.891 17.2252 41.8043 17.1363C39.2903 14.5935 36.7776 12.0506 34.2648 9.50769C31.5466 6.75581 28.838 3.99431 26.1043 1.25925C25.3123 0.466473 24.3492 0.0292469 23.189 0.223837C22.4623 0.346356 21.8994 0.753553 21.3947 1.25925C20.5456 2.10968 19.7049 2.96971 18.8606 3.82495C15.1722 7.56179 11.485 11.2998 7.79308 15.0343C7.68502 15.1436 7.6102 15.3226 7.40952 15.3094L7.41427 15.3021H7.41189Z" fill="black"/>
<path d="M42.1012 17.3546C42.1012 17.3546 42.0988 17.3678 42.0977 17.3678C42.2722 17.2489 42.347 17.4135 42.4349 17.5012C43.797 18.8741 45.1412 20.2651 46.5175 21.6236C47.8487 22.9389 47.7478 24.9088 46.698 26.2001C46.1221 26.9087 45.444 27.5225 44.7897 28.1568C44.7185 28.2252 44.6425 28.2841 44.5344 28.2517C44.5783 28.0787 44.7173 27.979 44.8313 27.8625C45.3134 27.37 45.805 26.8847 46.2812 26.3862C47.6884 24.916 47.686 23.113 46.2682 21.6572C45.1709 20.5305 44.0558 19.423 42.9586 18.2963C42.6629 17.9924 42.3173 17.733 42.1012 17.3546Z" fill="black"/>
<path d="M35.0913 37.8023C35.1198 37.6365 35.2564 37.5525 35.3609 37.4467C37.6504 35.1273 39.9411 32.8102 42.2329 30.4944C42.3267 30.3995 42.4027 30.2721 42.5547 30.2529L42.5452 30.2565C42.6367 30.4547 42.4609 30.5304 42.3636 30.6277C40.0551 32.97 37.7442 35.3087 35.4309 37.6461C35.3407 37.7374 35.2659 37.8876 35.0913 37.8011V37.8023Z" fill="black"/>
<path d="M7.41186 15.302L7.40712 15.3092C7.39999 15.4653 7.28005 15.5482 7.18505 15.6443C5.74699 17.1037 4.30893 18.5619 2.86611 20.0166C2.77586 20.1079 2.71055 20.2568 2.53955 20.2316H2.5348C2.50393 20.0634 2.63337 19.9829 2.72718 19.888C4.16049 18.4322 5.59499 16.9776 7.03187 15.5254C7.13637 15.4197 7.23849 15.296 7.41068 15.302H7.41186Z" fill="black"/>
<path d="M42.5441 30.2579L42.5536 30.2543C43.1461 29.5192 43.8004 28.8453 44.5331 28.252C44.602 28.3829 44.5094 28.4598 44.4334 28.5366C43.9121 29.0663 43.3884 29.5949 42.8659 30.1234C42.7768 30.2135 42.6877 30.3 42.5452 30.2567L42.5441 30.2579Z" fill="black"/>
<path d="M23.6926 2.44824C24.5131 2.49629 25.2375 2.82061 25.836 3.4248C28.363 5.97608 30.8888 8.52858 33.4134 11.0835C36.8999 14.6101 40.3841 18.1368 43.8694 21.6646C43.9181 21.7138 43.9656 21.7643 44.0131 21.8135C45.4309 23.2646 45.4381 24.7864 44.0202 26.2278C42.0537 28.2278 40.0813 30.2241 38.11 32.2193C34.0594 36.3177 30.0077 40.4149 25.9595 44.5157C25.5771 44.9025 25.1793 45.2652 24.6616 45.4478C23.4563 45.8706 22.4718 45.4154 21.6311 44.5818C20.041 43.0058 18.4783 41.4022 16.9048 39.8095C12.4066 35.2595 7.9095 30.707 3.40888 26.1594C2.12044 24.8573 2.13232 23.2165 3.46707 21.8532C4.82082 20.4706 6.18169 19.0953 7.54257 17.7187C12.2154 12.9909 16.8906 8.26432 21.561 3.5341C22.15 2.93832 22.7948 2.47227 23.6938 2.44944L23.6926 2.44824ZM23.4444 38.075C23.1356 37.5741 22.8839 37.0984 22.5478 36.678C21.1193 34.8919 19.2941 33.8985 17.0034 33.8469C16.4476 33.8337 16.2802 34.0619 16.4738 34.5664C16.9879 35.9069 17.7848 37.042 18.9687 37.8576C20.1716 38.6852 21.5088 39.0119 22.9599 38.8522C23.4194 38.8017 23.5631 38.9302 23.5465 39.3963C23.5334 39.7566 23.5085 40.1182 23.4515 40.4737C23.4099 40.7368 23.5216 40.7921 23.7389 40.7933C24.0061 40.7933 24.2163 40.7596 24.1082 40.3969C24.0738 40.2792 24.0844 40.1482 24.0726 40.0245C23.9811 39.0011 23.8244 38.8353 25.0772 38.881C28.021 38.9903 30.1288 37.0948 31.1014 34.6108C31.3199 34.0523 31.1619 33.8349 30.5539 33.8469C28.553 33.8841 26.8846 34.6841 25.5023 36.1267C24.9204 36.7333 24.4929 37.4516 24.05 38.2636C24.0892 37.9417 24.2139 37.7603 24.3231 37.5693C25.8348 34.9279 25.8657 32.2709 24.3837 29.6103C23.9206 28.7779 23.6498 28.7815 23.1903 29.6115C21.7047 32.2938 21.7593 34.9628 23.2734 37.615C23.3446 37.7399 23.4717 37.8444 23.4432 38.0762L23.4444 38.075ZM17.8904 19.2346C18.7383 19.2382 19.3653 18.8551 19.7584 18.1019C20.212 17.2323 20.2274 16.317 19.9401 15.3957C19.6396 14.4383 18.8666 13.8546 17.9249 13.8378C17.001 13.8209 16.2232 14.3627 15.8729 15.2876C15.5451 16.1548 15.5689 17.0305 15.9038 17.8881C16.2446 18.7578 16.9713 19.2322 17.8916 19.2334L17.8904 19.2346ZM10.3296 25.0519C10.3296 24.8021 10.3106 24.5498 10.3344 24.3012C10.3641 23.9768 10.2239 23.8892 9.92825 23.9084C9.59932 23.93 9.26682 23.9372 8.94025 23.9072C8.60063 23.8759 8.52582 24.0117 8.52582 24.33C8.52582 24.8141 8.86781 24.5954 9.08038 24.6459C9.23713 24.6831 9.50075 24.551 9.51144 24.8213C9.52332 25.1047 9.67888 25.4459 9.36181 25.6681C8.66119 26.1582 7.63757 25.8555 7.32288 25.0567C7.04025 24.342 7.05688 23.6105 7.33594 22.9018C7.50101 22.4838 7.80263 22.1823 8.28238 22.1391C8.86307 22.0862 9.11363 22.2303 9.39744 22.8309C9.56844 23.1925 9.87007 23.0796 10.1076 23.0255C10.351 22.9715 10.2311 22.7276 10.1907 22.5655C10.0636 22.0478 9.75726 21.6814 9.26326 21.4736C8.14226 21.0039 6.93575 21.4952 6.45125 22.6219C6.28382 23.0099 6.21969 23.4195 6.19119 23.8363C6.04513 25.9227 7.58176 27.19 9.47819 26.5534C10.2893 26.2807 10.3308 26.2218 10.3296 25.3438C10.3296 25.2465 10.3296 25.1492 10.3296 25.0519ZM28.6136 23.9636H28.6195C28.6195 24.7 28.629 25.4363 28.6148 26.1726C28.6088 26.5053 28.7157 26.6434 29.0648 26.6422C29.4151 26.6422 29.5208 26.4957 29.5161 26.1678C29.5066 25.5708 29.5066 24.9726 29.5268 24.3768C29.5434 23.8856 29.8438 23.5648 30.2393 23.5684C30.6145 23.5721 30.8164 23.8339 30.8247 24.3624C30.8342 24.9594 30.8366 25.5576 30.8223 26.1546C30.8152 26.4741 30.8959 26.6434 31.2569 26.641C31.5954 26.6386 31.7141 26.5221 31.7034 26.1762C31.6809 25.5107 31.7023 24.8429 31.6963 24.1762C31.6856 22.9871 30.8532 22.4466 29.7844 22.9546C29.5279 23.0772 29.5018 22.9787 29.5006 22.7757C29.5006 22.443 29.5006 22.109 29.5125 21.7763C29.5256 21.4232 29.3451 21.3403 29.0268 21.3367C28.6836 21.3331 28.6064 21.4988 28.61 21.7967C28.6183 22.5186 28.6124 23.2417 28.6124 23.9636H28.6136ZM21.7083 15.6443C21.7083 15.1506 21.6893 14.723 21.7142 14.2978C21.7356 13.929 21.5373 13.9038 21.2546 13.9002C20.9791 13.8966 20.8224 13.929 20.8259 14.2738C20.8414 15.7596 20.8402 17.2455 20.8259 18.7325C20.8224 19.0713 20.953 19.1589 21.2653 19.1529C21.561 19.1481 21.7273 19.0965 21.7154 18.7421C21.6952 18.1319 21.6916 17.5193 21.7225 16.9092C21.7486 16.4011 22.0467 16.1164 22.4576 16.126C22.8578 16.1356 23.0489 16.3938 23.0537 16.9536C23.0584 17.565 23.0668 18.1764 23.0513 18.7866C23.043 19.1013 23.2009 19.1601 23.4598 19.1469C23.6914 19.1349 23.9396 19.1926 23.9324 18.813C23.9182 18.0491 23.9503 17.2839 23.917 16.5224C23.8814 15.7008 23.3696 15.2792 22.5538 15.3248C22.2688 15.3404 22.0289 15.4665 21.7071 15.6455L21.7083 15.6443ZM39.1526 24.33C39.0279 24.1294 39.0707 23.9768 39.0719 23.8255C39.0778 23.1168 39.0743 22.4081 39.0802 21.7006C39.0838 21.315 38.8213 21.3535 38.5684 21.3451C38.3143 21.3367 38.1884 21.4208 38.1908 21.7006C38.2062 23.2141 38.2169 24.7288 38.2145 26.2423C38.2145 26.5221 38.2834 26.6483 38.5814 26.6398C38.8712 26.6314 39.1016 26.6182 39.0861 26.2278C39.0683 25.7882 39.0826 25.3474 39.0826 24.8057C39.4305 25.2849 39.7654 25.6705 40.0124 26.1077C40.2831 26.587 40.6631 26.6975 41.1512 26.6314C41.2438 26.6194 41.3566 26.647 41.4101 26.5437C41.4683 26.432 41.3673 26.3648 41.3115 26.2939C40.9731 25.8567 40.6489 25.4062 40.2855 24.9906C40.0302 24.7 39.9898 24.4922 40.2962 24.2015C40.6251 23.8904 40.8983 23.518 41.1892 23.1673C41.2581 23.0844 41.4018 22.9775 41.2082 22.8718C40.9873 22.7492 40.3639 22.8898 40.1893 23.0976C39.8533 23.4976 39.5172 23.8988 39.1526 24.3324V24.33ZM12.9113 24.9738V24.9702C13.2271 24.9702 13.543 24.9702 13.8577 24.9702C14.0216 24.9702 14.1748 24.9426 14.1783 24.736C14.1985 23.5745 13.5121 22.5631 12.2546 22.7901C11.2036 22.9811 10.6419 24.0802 10.9198 25.3414C11.1704 26.4729 12.3211 27.047 13.3435 26.5522C13.6546 26.402 13.8743 26.1642 14.0061 25.8435C14.056 25.7222 14.0999 25.5684 13.9278 25.5408C13.6819 25.5011 13.4088 25.4026 13.2129 25.6801C12.9801 26.0092 12.6405 25.9852 12.3163 25.9083C11.9862 25.8291 11.8579 25.5444 11.7724 25.2357C11.7202 25.0483 11.7808 24.9738 11.9636 24.9738C12.2795 24.9738 12.5954 24.9738 12.9101 24.9738H12.9113ZM23.2366 24.975V24.9726C23.5524 24.9726 23.8671 24.9726 24.183 24.9726C24.3564 24.9726 24.4858 24.9162 24.4894 24.7204C24.5108 23.4904 23.7163 22.5114 22.4694 22.8129C21.5206 23.0423 20.9744 24.0705 21.1917 25.1996C21.3009 25.7666 21.5515 26.2435 22.0811 26.5281C22.8815 26.9582 23.9491 26.6591 24.2887 25.9035C24.3493 25.769 24.4561 25.5828 24.2222 25.5384C23.9811 25.4939 23.7092 25.4122 23.5097 25.6885C23.2781 26.008 22.9373 25.9936 22.6108 25.9047C22.302 25.8206 22.1749 25.554 22.0883 25.2609C22.0289 25.0591 22.0823 24.9726 22.2925 24.975C22.6084 24.9786 22.9231 24.975 23.2389 24.975H23.2366ZM30.6204 17.5266V17.5217C30.7855 17.5217 30.9494 17.5217 31.1144 17.5217C31.9671 17.5193 32.0051 17.6311 31.8127 16.5896C31.6975 15.9662 31.3187 15.4846 30.6751 15.35C30.0718 15.2239 29.4935 15.3332 29.0601 15.8389C28.4948 16.4972 28.3998 17.7199 28.8606 18.4623C29.2453 19.0809 29.8201 19.2911 30.5207 19.2334C31.061 19.189 31.4517 18.9343 31.6951 18.4479C31.7581 18.3205 31.8839 18.1331 31.6405 18.0947C31.3911 18.0551 31.1133 17.9325 30.8948 18.2461C30.7012 18.5247 30.3853 18.55 30.0718 18.4671C29.7429 18.3806 29.5885 18.1223 29.4923 17.8184C29.4294 17.6202 29.5161 17.529 29.7132 17.5278C30.0148 17.5278 30.3176 17.5278 30.6193 17.5278L30.6204 17.5266ZM24.8053 17.2479C24.8207 17.2479 24.8361 17.2479 24.8528 17.2479C24.8528 17.762 24.8824 18.2785 24.8433 18.789C24.8112 19.2118 25.0629 19.1289 25.3076 19.1505C25.6044 19.1758 25.7291 19.0881 25.722 18.7662C25.7089 18.1271 25.7101 17.4869 25.741 16.8491C25.7648 16.3686 26.0569 16.1104 26.4761 16.1308C26.8478 16.1488 27.0128 16.359 27.0199 16.8623C27.0294 17.4881 27.033 18.1139 27.0188 18.7385C27.0128 19.0316 27.0853 19.177 27.4106 19.1517C27.6826 19.1301 27.9248 19.1698 27.907 18.7518C27.8773 18.0719 27.8951 17.3896 27.8975 16.7086C27.8987 16.2137 27.8203 15.7476 27.3429 15.493C26.8442 15.2275 26.3371 15.2383 25.8669 15.5819C25.7469 15.6695 25.6888 15.6996 25.5843 15.5422C25.4133 15.284 25.1271 15.3921 24.9074 15.4401C24.6948 15.487 24.8088 15.7188 24.8064 15.8713C24.8005 16.3302 24.8041 16.7878 24.8041 17.2467L24.8053 17.2479ZM32.5478 24.7744C32.5478 25.3282 32.5537 25.8134 32.5454 26.2999C32.5394 26.6374 32.7639 26.629 32.9919 26.6326C33.2282 26.6362 33.4301 26.6242 33.4218 26.2903C33.4087 25.7077 33.4218 25.124 33.4218 24.5414C33.4218 24.3588 33.4396 24.1822 33.5144 24.0129C33.6462 23.7114 33.8778 23.5588 34.196 23.5817C34.5368 23.6069 34.6829 23.8219 34.7209 24.1618C34.8016 24.8693 34.7541 25.5768 34.7565 26.2831C34.7565 26.569 34.8729 26.6507 35.1246 26.6338C35.3503 26.6182 35.6269 26.6903 35.6246 26.3167C35.621 25.5252 35.6626 24.73 35.5973 23.9444C35.5094 22.9042 34.5226 22.4502 33.6355 22.9991C33.4859 23.0916 33.4182 23.1769 33.2721 22.9522C33.1356 22.7444 32.8411 22.8489 32.6154 22.873C32.4967 22.8862 32.4777 22.9919 32.4979 23.0976C32.6083 23.6766 32.5038 24.2615 32.5478 24.7744ZM14.7744 24.8861C14.7839 24.8861 14.7946 24.8861 14.8041 24.8861C14.8041 25.3438 14.816 25.8026 14.7994 26.2603C14.7899 26.5233 14.8694 26.6374 15.1449 26.6374C15.5998 26.6374 15.6722 26.5858 15.6758 26.1245C15.6805 25.5276 15.6674 24.9306 15.6864 24.3348C15.7007 23.888 16.0178 23.5648 16.3954 23.5672C16.7694 23.5697 16.9559 23.7955 16.9701 24.3156C16.9868 24.9678 16.9879 25.6201 16.9832 26.2723C16.9808 26.617 17.1898 26.635 17.4463 26.635C17.7088 26.635 17.8524 26.5594 17.8465 26.2543C17.8311 25.5324 17.8346 24.8105 17.8441 24.0898C17.8501 23.5985 17.7313 23.1769 17.2729 22.9318C16.7956 22.6772 16.3206 22.718 15.8646 22.9979C15.7363 23.076 15.6627 23.2249 15.519 22.9595C15.3991 22.7384 15.0856 22.8213 14.8706 22.8778C14.6414 22.9378 14.7733 23.1504 14.7744 23.3042C14.7768 23.8315 14.7744 24.3576 14.7744 24.8849V24.8861ZM24.8718 24.7936C24.8551 25.1912 24.9466 25.608 25.1888 25.9792C25.5581 26.5426 26.0984 26.7744 26.748 26.7071C27.3239 26.6483 27.7586 26.3456 27.9426 25.769C27.9961 25.602 28.1849 25.3306 27.8761 25.2453C27.6268 25.1756 27.2859 25.0639 27.1565 25.4771C27.0591 25.787 26.8905 25.9756 26.5319 25.9528C26.178 25.93 25.9654 25.733 25.8633 25.4267C25.7303 25.0279 25.7006 24.6123 25.8229 24.1967C25.9274 23.8423 26.1044 23.5444 26.5022 23.5072C26.8608 23.4736 27.0116 23.7162 27.1518 24.0249C27.3002 24.354 27.6469 24.2351 27.8821 24.1618C28.1053 24.0922 27.9747 23.8531 27.9213 23.6922C27.7241 23.094 27.2871 22.8033 26.6851 22.7613C25.6033 22.6856 24.8741 23.4928 24.8729 24.7936H24.8718ZM19.1884 25.0831C19.1884 25.4579 19.205 25.8339 19.1836 26.2086C19.1634 26.551 19.3238 26.6362 19.6266 26.6374C19.927 26.6386 20.0458 26.5245 20.0398 26.2194C20.0268 25.5252 20.0315 24.8297 20.0339 24.1354C20.0363 23.5817 19.984 23.4964 20.6134 23.5288C20.9031 23.5444 20.9863 23.4099 20.9851 23.1276C20.9839 22.8562 20.8984 22.7553 20.63 22.7601C19.9567 22.7721 19.2834 22.7601 18.6113 22.7673C18.2562 22.7721 18.0983 23.0219 18.2336 23.3522C18.3417 23.6165 18.5851 23.5324 18.7728 23.524C19.0958 23.5096 19.2157 23.6285 19.1955 23.9588C19.1718 24.3324 19.1896 24.7084 19.1896 25.0843L19.1884 25.0831ZM36.4404 24.7444H36.4368C36.4368 25.2429 36.4499 25.7414 36.4321 26.2399C36.419 26.6062 36.6316 26.6314 36.9071 26.6362C37.1814 26.641 37.35 26.5822 37.3464 26.2519C37.3369 25.2549 37.3346 24.2579 37.3488 23.2609C37.3536 22.9222 37.1992 22.8381 36.8988 22.8393C36.6078 22.8405 36.4249 22.8982 36.4356 23.2489C36.4511 23.7474 36.4392 24.2459 36.4392 24.7444H36.4404ZM37.0044 21.3271C36.59 21.3247 36.3406 21.5625 36.3632 21.8724C36.3858 22.1931 36.5663 22.3865 36.8964 22.3781C37.2218 22.3697 37.3987 22.1907 37.3975 21.8532C37.3975 21.5204 37.2419 21.3355 37.0044 21.3283V21.3271Z" fill="black"/>
<path d="M16.5925 16.5536C16.6032 16.1175 16.6567 15.708 16.8467 15.3272C17.064 14.89 17.425 14.6533 17.9023 14.6533C18.3667 14.6533 18.7241 14.8984 18.9177 15.3212C19.2822 16.1188 19.2882 16.9367 18.9295 17.7391C18.7348 18.1764 18.3916 18.4286 17.8928 18.425C17.3822 18.4214 17.0426 18.1631 16.8265 17.7127C16.6483 17.3415 16.6127 16.9416 16.5925 16.5548V16.5536Z" fill="black"/>
<path d="M12.5004 24.2676C12.4185 24.2676 12.3342 24.2785 12.2546 24.2652C12.1145 24.2424 11.9079 24.3409 11.8473 24.1727C11.7844 23.9962 11.9221 23.8316 12.0468 23.7007C12.3947 23.3391 12.9695 23.452 13.1702 23.9109C13.2735 24.1487 13.2462 24.2845 12.9517 24.2676C12.802 24.2592 12.6512 24.2664 12.5004 24.2676Z" fill="black"/>
<path d="M22.8316 24.2659C22.7497 24.2659 22.6654 24.2768 22.5858 24.2635C22.435 24.2383 22.2129 24.356 22.15 24.1578C22.0942 23.9837 22.2391 23.8179 22.3685 23.693C22.6001 23.472 22.8672 23.4251 23.1594 23.5717C23.385 23.6858 23.5631 23.8816 23.5227 24.1206C23.4776 24.3825 23.2057 24.2251 23.0371 24.2635C22.9717 24.278 22.9005 24.2659 22.8328 24.2659H22.8316Z" fill="black"/>
<path d="M30.2344 16.8239C30.1394 16.8239 30.0421 16.8347 29.9483 16.8203C29.8093 16.7987 29.6063 16.9116 29.5469 16.7338C29.4946 16.5788 29.6169 16.4167 29.7226 16.2882C30.0539 15.8858 30.694 15.9891 30.9042 16.4671C31.0111 16.7086 30.9731 16.8371 30.6845 16.8251C30.5349 16.8191 30.3841 16.8251 30.2344 16.8239Z" fill="black"/>
</svg>
